<?xml version="1.0" standalone="yes"?>

<svg version="1.1" viewBox="0.0 0.0 544.1837270341207 292.1417322834646" fill="none" stroke="none" stroke-linecap="square" stroke-miterlimit="10" xmlns="http://www.w3.org/2000/svg" xmlns:xlink="http://www.w3.org/1999/xlink"><clipPath id="p.0"><path d="m0 0l544.1837 0l0 292.14172l-544.1837 0l0 -292.14172z" clip-rule="nonzero"></path></clipPath><g clip-path="url(#p.0)"><path fill="#000000" fill-opacity="0.0" d="m0 0l544.1837 0l0 292.14172l-544.1837 0z" fill-rule="nonzero"></path><path fill="#000000" fill-opacity="0.0" d="m91.13582 61.509495l42.393707 0l0 51.716534l-42.393707 0z" fill-rule="nonzero"></path><path fill="#000000" d="m119.52644 96.1095l-4.25 0l-1.6875 -4.390625l-7.71875 0l-1.59375 4.390625l-4.140625 0l7.53125 -19.328125l4.125 0l7.734375 19.328125zm-7.1875 -7.640625l-2.65625 -7.171875l-2.609375 7.171875l5.265625 0z" fill-rule="nonzero"></path><path fill="#000000" fill-opacity="0.0" d="m182.3593 82.66402l30.67717 0l0 41.07087l-30.67717 0z" fill-rule="nonzero"></path><path fill="#000000" d="m193.20305 117.264015l0 -19.328125l3.90625 0l0 19.328125l-3.90625 0z" fill-rule="nonzero"></path><path fill="#000000" fill-opacity="0.0" d="m213.03633 176.69275l42.393707 0l0 51.716537l-42.393707 0z" fill-rule="nonzero"></path><path fill="#000000" d="m232.98946 204.18338l0 -3.25l8.40625 0l0 7.703125q-1.21875 1.171875 -3.546875 2.078125q-2.328125 0.90625 -4.71875 0.90625q-3.03125 0 -5.28125 -1.265625q-2.25 -1.28125 -3.390625 -3.640625q-1.125 -2.375 -1.125 -5.15625q0 -3.015625 1.265625 -5.359375q1.265625 -2.34375 3.703125 -3.59375q1.859375 -0.96875 4.625 -0.96875q3.59375 0 5.609375 1.515625q2.03125 1.5 2.609375 4.171875l-3.875 0.71875q-0.40625 -1.421875 -1.53125 -2.25q-1.125 -0.828125 -2.8125 -0.828125q-2.5625 0 -4.078125 1.625q-1.5 1.625 -1.5 4.8125q0 3.4375 1.53125 5.171875q1.53125 1.71875 4.0 1.71875q1.234375 0 2.46875 -0.484375q1.234375 -0.484375 2.109375 -1.171875l0 -2.453125l-4.46875 0z" fill-rule="nonzero"></path><path fill="#000000" fill-opacity="0.0" d="m325.14447 74.78479l42.393707 0l0 51.716537l-42.393707 0z" fill-rule="nonzero"></path><path fill="#000000" d="m336.12885 90.05666l7.71875 0q2.296875 0 3.421875 0.203125q1.125 0.1875 2.015625 0.796875q0.890625 0.59375 1.484375 1.609375q0.59375 1.0 0.59375 2.25q0 1.359375 -0.734375 2.5q-0.734375 1.125 -1.984375 1.703125q1.765625 0.515625 2.71875 1.75q0.953125 1.234375 0.953125 2.90625q0 1.328125 -0.625 2.578125q-0.609375 1.234375 -1.671875 1.984375q-1.0625 0.75 -2.609375 0.921875q-0.984375 0.09375 -4.703125 0.125l-6.578125 0l0 -19.328125zm3.890625 3.21875l0 4.46875l2.5625 0q2.28125 0 2.828125 -0.0625q1.015625 -0.125 1.578125 -0.6875q0.578125 -0.578125 0.578125 -1.515625q0 -0.90625 -0.5 -1.453125q-0.484375 -0.5625 -1.46875 -0.6875q-0.578125 -0.0625 -3.328125 -0.0625l-2.25 0zm0 7.6875l0 5.171875l3.625 0q2.109375 0 2.671875 -0.125q0.859375 -0.15625 1.40625 -0.765625q0.5625 -0.625 0.5625 -1.640625q0 -0.875 -0.421875 -1.484375q-0.421875 -0.609375 -1.234375 -0.875q-0.796875 -0.28125 -3.453125 -0.28125l-3.15625 0z" fill-rule="nonzero"></path><path fill="#000000" fill-opacity="0.0" d="m4.585302 134.38393l42.393703 0l0 61.511826l-42.393703 0z" fill-rule="nonzero"></path><path fill="#000000" d="m15.569676 168.98393l0 -19.328125l3.890626 0l0 7.609375l7.65625 0l0 -7.609375l3.890625 0l0 19.328125l-3.890625 0l0 -8.453125l-7.65625 0l0 8.453125l-3.890626 0z" fill-rule="nonzero"></path><path fill="#000000" fill-opacity="0.0" d="m268.73862 0l42.393677 0l0 51.716534l-42.393677 0z" fill-rule="nonzero"></path><path fill="#000000" d="m279.723 34.6l0 -19.328125l13.25 0l0 3.265625l-9.34375 0l0 4.578125l8.078125 0l0 3.265625l-8.078125 0l0 8.21875l-3.90625 0z" fill-rule="nonzero"></path><path fill="#000000" fill-opacity="0.0" d="m325.14447 176.69275l42.393707 0l0 51.716537l-42.393707 0z" fill-rule="nonzero"></path><path fill="#000000" d="m336.11322 211.29276l0 -19.328125l14.328125 0l0 3.265625l-10.4375 0l0 4.296875l9.703125 0l0 3.25l-9.703125 0l0 5.265625l10.8125 0l0 3.25l-14.703125 0z" fill-rule="nonzero"></path><path fill="#000000" fill-opacity="0.0" d="m72.5684 241.32196l42.3937 0l0 51.716553l-42.3937 0z" fill-rule="nonzero"></path><path fill="#000000" d="m95.89652 268.8126l3.78125 1.203125q-0.859375 3.15625 -2.890625 4.703125q-2.015625 1.53125 -5.140625 1.53125q-3.84375 0 -6.328125 -2.625q-2.46875 -2.640625 -2.46875 -7.203125q0 -4.8125 2.484375 -7.484375q2.5 -2.671875 6.5625 -2.671875q3.546875 0 5.75 2.09375q1.328125 1.234375 1.984375 3.5625l-3.859375 0.921875q-0.34375 -1.5 -1.4375 -2.375q-1.078125 -0.875 -2.640625 -0.875q-2.15625 0 -3.5 1.546875q-1.328125 1.546875 -1.328125 5.0q0 3.65625 1.3125 5.21875q1.328125 1.5625 3.4375 1.5625q1.5625 0 2.671875 -0.984375q1.125 -1.0 1.609375 -3.125z" fill-rule="nonzero"></path><path fill="#000000" fill-opacity="0.0" d="m498.50745 41.04566l42.393738 0l0 51.716534l-42.393738 0z" fill-rule="nonzero"></path><path fill="#000000" d="m509.46057 56.31753l7.125 0q2.421875 0 3.6875 0.375q1.703125 0.5 2.90625 1.78125q1.21875 1.265625 1.84375 3.125q0.640625 1.859375 0.640625 4.562504q0 2.390625 -0.59375 4.125q-0.734375 2.109375 -2.078125 3.40625q-1.015625 0.984375 -2.734375 1.546875q-1.296875 0.40625 -3.453125 0.40625l-7.34375 0l0 -19.328129zm3.90625 3.265625l0 12.812504l2.90625 0q1.640625 0 2.359375 -0.1875q0.953125 -0.234375 1.578125 -0.796875q0.625 -0.578125 1.015625 -1.875q0.40625 -1.296875 0.40625 -3.546875q0 -2.2343788 -0.40625 -3.4375038q-0.390625 -1.203125 -1.109375 -1.875q-0.703125 -0.671875 -1.796875 -0.90625q-0.8125 -0.1875 -3.203125 -0.1875l-1.75 0z" fill-rule="nonzero"></path><path fill="#000000" fill-opacity="0.0" d="m25.782152 134.38393l65.35433 -47.023613" fill-rule="nonzero"></path><path stroke="#000000" stroke-width="3.0" stroke-linejoin="round" stroke-linecap="butt" d="m25.782152 134.38393l57.008827 -41.018883" fill-rule="evenodd"></path><path fill="#000000" stroke="#000000" stroke-width="3.0" stroke-linecap="butt" d="m82.79098 93.36505l-0.76810455 4.708969l5.5536423 -8.152252l-9.494507 2.675171z" fill-rule="evenodd"></path><path fill="#000000" fill-opacity="0.0" d="m133.52953 87.36776l48.818893 15.842522" fill-rule="nonzero"></path><path stroke="#000000" stroke-width="3.0" stroke-linejoin="round" stroke-linecap="butt" d="m133.52951 87.36776l39.03969 12.669006" fill-rule="evenodd"></path><path fill="#000000" stroke="#000000" stroke-width="3.0" stroke-linecap="butt" d="m172.56921 100.036766l-4.2503967 2.167633l9.858063 -0.3478546l-7.775299 -6.07016z" fill-rule="evenodd"></path><path fill="#000000" fill-opacity="0.0" d="m133.52953 87.36776l135.2126 -61.51181" fill-rule="nonzero"></path><path stroke="#000000" stroke-width="3.0" stroke-linejoin="round" stroke-linecap="butt" d="m133.52951 87.36776l125.85425 -57.254433" fill-rule="evenodd"></path><path fill="#000000" stroke="#000000" stroke-width="3.0" stroke-linecap="butt" d="m259.38376 30.113325l-1.6738586 4.467947l7.0401917 -6.9092407l-9.83429 0.7674217z" fill-rule="evenodd"></path><path fill="#000000" fill-opacity="0.0" d="m197.69789 123.734886l-103.93701 117.57481" fill-rule="nonzero"></path><path stroke="#000000" stroke-width="3.0" stroke-linejoin="round" stroke-linecap="butt" d="m190.88843 131.43784l-97.12755 109.87186" fill-rule="evenodd"></path><path fill="#000000" stroke="#000000" stroke-width="3.0" stroke-linecap="butt" d="m190.88843 131.43784l0.29319763 4.762192l3.6115417 -9.179268l-8.666931 4.7102737z" fill-rule="evenodd"></path><path fill="#000000" fill-opacity="0.0" d="m255.43004 202.55101l69.70079 0" fill-rule="nonzero"></path><path stroke="#000000" stroke-width="3.0" stroke-linejoin="round" stroke-linecap="butt" d="m255.43004 202.55101l59.41954 0" fill-rule="evenodd"></path><path fill="#000000" stroke="#000000" stroke-width="3.0" stroke-linecap="butt" d="m314.84958 202.55101l-3.3737793 3.373764l9.269318 -3.373764l-9.269318 -3.3737488z" fill-rule="evenodd"></path><path fill="#000000" fill-opacity="0.0" d="m234.23318 176.69275l90.897644 -76.06299" fill-rule="nonzero"></path><path stroke="#000000" stroke-width="3.0" stroke-linejoin="round" stroke-linecap="butt" d="m234.23318 176.69275l83.01282 -69.46497" fill-rule="evenodd"></path><path fill="#000000" stroke="#000000" stroke-width="3.0" stroke-linecap="butt" d="m317.246 107.22777l-0.42227173 4.7524796l4.943634 -8.535957l-9.273865 3.3612137z" fill-rule="evenodd"></path><path fill="#000000" fill-opacity="0.0" d="m346.3413 176.69275l0 -50.204727" fill-rule="nonzero"></path><path stroke="#000000" stroke-width="3.0" stroke-linejoin="round" stroke-linecap="butt" d="m346.34134 176.69275l0 -39.923462" fill-rule="evenodd"></path><path fill="#000000" stroke="#000000" stroke-width="3.0" stroke-linecap="butt" d="m346.34134 136.76929l3.3737488 3.3737488l-3.3737488 -9.269302l-3.3737488 9.269302z" fill-rule="evenodd"></path><path fill="#000000" fill-opacity="0.0" d="m311.1323 25.858267l35.212616 48.913383" fill-rule="nonzero"></path><path stroke="#000000" stroke-width="3.0" stroke-linejoin="round" stroke-linecap="butt" d="m311.1323 25.858267l29.20578 40.56938" fill-rule="evenodd"></path><path fill="#000000" stroke="#000000" stroke-width="3.0" stroke-linecap="butt" d="m340.33807 66.42765l-4.7091675 -0.76693726l8.153656 5.551613l-2.6775513 -9.493835z" fill-rule="evenodd"></path><path fill="#000000" fill-opacity="0.0" d="m498.50745 66.90393l-130.96063 135.65353" fill-rule="nonzero"></path><path stroke="#000000" stroke-width="3.0" stroke-linejoin="round" stroke-linecap="butt" d="m491.3666 74.3007l-123.81976 128.25677" fill-rule="evenodd"></path><path fill="#000000" stroke="#000000" stroke-width="3.0" stroke-linecap="butt" d="m491.36658 74.3007l0.083984375 4.770462l4.010803 -9.0119705l-8.865234 4.3254776z" fill-rule="evenodd"></path><path fill="#000000" fill-opacity="0.0" d="m498.50745 66.90393l-187.37009 -41.039375" fill-rule="nonzero"></path><path stroke="#000000" stroke-width="3.0" stroke-linejoin="round" stroke-linecap="butt" d="m488.4643 64.704185l-177.32693 -38.83963" fill-rule="evenodd"></path><path fill="#000000" stroke="#000000" stroke-width="3.0" stroke-linecap="butt" d="m488.4643 64.704185l-4.017456 2.5737915l9.776489 -1.3124008l-8.332825 -5.2788506z" fill-rule="evenodd"></path><path fill="#000000" fill-opacity="0.0" d="m114.971245 267.18094l231.37006 -38.771652" fill-rule="nonzero"></path><path stroke="#000000" stroke-width="3.0" stroke-linejoin="round" stroke-linecap="butt" d="m114.971245 267.18094l221.23022 -37.072464" fill-rule="evenodd"></path><path fill="#000000" stroke="#000000" stroke-width="3.0" stroke-linecap="butt" d="m336.20145 230.10846l-2.7697754 3.8849487l8.584259 -4.8592987l-9.699402 -1.7954254z" fill-rule="evenodd"></path><path fill="#000000" fill-opacity="0.0" d="m46.979004 165.13983l166.04724 37.417328" fill-rule="nonzero"></path><path stroke="#000000" stroke-width="3.0" stroke-linejoin="round" stroke-linecap="butt" d="m46.979004 165.13983l156.01749 35.15721" fill-rule="evenodd"></path><path fill="#000000" stroke="#000000" stroke-width="3.0" stroke-linecap="butt" d="m202.99649 200.29704l-4.0328827 2.5495758l9.78421 -1.2535553l-8.300903 -5.328888z" fill-rule="evenodd"></path></g></svg>

