<?xml version="1.0" standalone="yes"?>

<svg version="1.1" viewBox="0.0 0.0 1404.9501312335958 848.5170603674541" fill="none" stroke="none" stroke-linecap="square" stroke-miterlimit="10" xmlns="http://www.w3.org/2000/svg" xmlns:xlink="http://www.w3.org/1999/xlink"><clipPath id="p.0"><path d="m0 0l1404.9501 0l0 848.5171l-1404.9501 0l0 -848.5171z" clip-rule="nonzero"></path></clipPath><g clip-path="url(#p.0)"><path fill="#000000" fill-opacity="0.0" d="m0 0l1404.9501 0l0 848.5171l-1404.9501 0z" fill-rule="nonzero"></path><path fill="#000000" fill-opacity="0.0" d="m77.86352 168.98163l198.80313 0l0 71.244095l-198.80313 0z" fill-rule="nonzero"></path><path fill="#000000" d="m91.61352 239.42163l0 -45.8125l9.0 0l18.75 30.59375l0 -30.59375l8.59375 0l0 45.8125l-9.28125 0l-18.46875 -29.875l0 29.875l-8.59375 0zm44.031242 -17.0625q0 -4.375 2.15625 -8.46875q2.15625 -4.09375 6.109375 -6.25q3.953125 -2.15625 8.828125 -2.15625q7.53125 0 12.34375 4.890625q4.8125 4.890625 4.8125 12.359375q0 7.53125 -4.859375 12.484375q-4.859375 4.953125 -12.234375 4.953125q-4.5625 0 -8.703125 -2.0625q-4.140625 -2.0625 -6.296875 -6.046875q-2.15625 -3.984375 -2.15625 -9.703125zm9.0 0.46875q0 4.9375 2.34375 7.5625q2.34375 2.625 5.78125 2.625q3.4375 0 5.765625 -2.625q2.328125 -2.625 2.328125 -7.625q0 -4.875 -2.328125 -7.5q-2.328125 -2.625 -5.765625 -2.625q-3.4375 0 -5.78125 2.625q-2.34375 2.625 -2.34375 7.5625zm62.5625 16.59375l-8.15625 0l0 -4.875q-2.03125 2.84375 -4.796875 4.234375q-2.765625 1.390625 -5.578125 1.390625q-5.71875 0 -9.796875 -4.609375q-4.078125 -4.609375 -4.078125 -12.859375q0 -8.4375 3.96875 -12.828125q3.96875 -4.390625 10.03125 -4.390625q5.5625 0 9.625 4.625l0 -16.5l8.78125 0l0 45.8125zm-23.4375 -17.3125q0 5.3125 1.46875 7.6875q2.125 3.4375 5.9375 3.4375q3.03125 0 5.15625 -2.578125q2.125 -2.578125 2.125 -7.703125q0 -5.71875 -2.0625 -8.234375q-2.0625 -2.515625 -5.28125 -2.515625q-3.125 0 -5.234375 2.484375q-2.109375 2.484375 -2.109375 7.421875zm51.3125 6.75l8.75 1.46875q-1.6875 4.8125 -5.328125 7.328125q-3.640625 2.515625 -9.109375 2.515625q-8.65625 0 -12.8125 -5.65625q-3.28125 -4.53125 -3.28125 -11.4375q0 -8.25 4.3125 -12.921875q4.3125 -4.671875 10.90625 -4.671875q7.40625 0 11.6875 4.890625q4.28125 4.890625 4.09375 14.984375l-22.0 0q0.09375 3.90625 2.125 6.078125q2.03125 2.171875 5.0625 2.171875q2.0625 0 3.46875 -1.125q1.40625 -1.125 2.125 -3.625zm0.5 -8.875q-0.09375 -3.8125 -1.96875 -5.796875q-1.875 -1.984375 -4.5625 -1.984375q-2.875 0 -4.75 2.09375q-1.875 2.09375 -1.84375 5.6875l13.125 0z" fill-rule="nonzero"></path><path fill="#cfe2f3" d="m323.6273 147.44673l0 0c0 -14.640915 11.868805 -26.509727 26.509735 -26.509727l355.61047 0c7.0308228 0 13.773682 2.792984 18.745178 7.7645187c4.9715576 4.9715424 7.7645264 11.714386 7.7645264 18.745209l0 106.035675c0 14.640915 -11.868774 26.50972 -26.509705 26.50972l-355.61047 0l0 0c-14.64093 0 -26.509735 -11.868805 -26.509735 -26.50972z" fill-rule="nonzero"></path><path stroke="#000000" stroke-width="3.0" stroke-linejoin="round" stroke-linecap="butt" d="m323.6273 147.44673l0 0c0 -14.640915 11.868805 -26.509727 26.509735 -26.509727l355.61047 0c7.0308228 0 13.773682 2.792984 18.745178 7.7645187c4.9715576 4.9715424 7.7645264 11.714386 7.7645264 18.745209l0 106.035675c0 14.640915 -11.868774 26.50972 -26.509705 26.50972l-355.61047 0l0 0c-14.64093 0 -26.509735 -11.868805 -26.509735 -26.50972z" fill-rule="nonzero"></path><path fill="#000000" d="m358.42297 223.40456l-17.75 -45.8125l6.5625 0l11.90625 33.28125q1.4375 4.0 2.40625 7.5q1.0625 -3.75 2.46875 -7.5l12.375 -33.28125l6.1875 0l-17.9375 45.8125l-6.21875 0zm50.53125 -4.09375q-3.125 2.65625 -6.015625 3.75q-2.890625 1.09375 -6.203125 1.09375q-5.46875 0 -8.40625 -2.671875q-2.9375 -2.671875 -2.9375 -6.828125q0 -2.4375 1.109375 -4.453125q1.109375 -2.015625 2.90625 -3.234375q1.796875 -1.21875 4.046875 -1.84375q1.65625 -0.4375 5.0 -0.84375q6.8125 -0.8125 10.03125 -1.9375q0.03125 -1.15625 0.03125 -1.46875q0 -3.4375 -1.59375 -4.84375q-2.15625 -1.90625 -6.40625 -1.90625q-3.96875 0 -5.859375 1.390625q-1.890625 1.390625 -2.796875 4.921875l-5.5 -0.75q0.75 -3.53125 2.46875 -5.703125q1.71875 -2.171875 4.96875 -3.34375q3.25 -1.171875 7.53125 -1.171875q4.25 0 6.90625 1.0q2.65625 1.0 3.90625 2.515625q1.25 1.515625 1.75 3.828125q0.28125 1.4375 0.28125 5.1875l0 7.5q0 7.84375 0.359375 9.921875q0.359375 2.078125 1.421875 3.984375l-5.875 0q-0.875 -1.75 -1.125 -4.09375zm-0.46875 -12.5625q-3.0625 1.25 -9.1875 2.125q-3.46875 0.5 -4.90625 1.125q-1.4375 0.625 -2.21875 1.828125q-0.78125 1.203125 -0.78125 2.671875q0 2.25 1.703125 3.75q1.703125 1.5 4.984375 1.5q3.25 0 5.78125 -1.421875q2.53125 -1.421875 3.71875 -3.890625q0.90625 -1.90625 0.90625 -5.625l0 -2.0625zm14.28125 16.65625l0 -45.8125l5.625 0l0 45.8125l-5.625 0zm36.09375 0l0 -4.875q-3.875 5.625 -10.53125 5.625q-2.9375 0 -5.484375 -1.125q-2.546875 -1.125 -3.78125 -2.828125q-1.234375 -1.703125 -1.734375 -4.171875q-0.34375 -1.65625 -0.34375 -5.25l0 -20.5625l5.625 0l0 18.40625q0 4.40625 0.34375 5.9375q0.53125 2.21875 2.25 3.484375q1.71875 1.265625 4.25 1.265625q2.53125 0 4.75 -1.296875q2.21875 -1.296875 3.140625 -3.53125q0.921875 -2.234375 0.921875 -6.484375l0 -17.78125l5.625 0l0 33.1875l-5.03125 0zm36.5625 -10.6875l5.8125 0.71875q-1.375 5.09375 -5.09375 7.90625q-3.71875 2.8125 -9.5 2.8125q-7.28125 0 -11.546875 -4.484375q-4.265625 -4.484375 -4.265625 -12.578125q0 -8.375 4.3125 -13.0q4.3125 -4.625 11.1875 -4.625q6.65625 0 10.875 4.53125q4.21875 4.53125 4.21875 12.75q0 0.5 -0.03125 1.5l-24.75 0q0.3125 5.46875 3.09375 8.375q2.78125 2.90625 6.9375 2.90625q3.09375 0 5.28125 -1.625q2.1875 -1.625 3.46875 -5.1875zm-18.46875 -9.09375l18.53125 0q-0.375 -4.1875 -2.125 -6.28125q-2.6875 -3.25 -6.96875 -3.25q-3.875 0 -6.515625 2.59375q-2.640625 2.59375 -2.921875 6.9375z" fill-rule="nonzero"></path><path fill="#000000" fill-opacity="0.0" d="m569.90027 120.937004l1.4487915 159.05511" fill-rule="nonzero"></path><path stroke="#000000" stroke-width="3.0" stroke-linejoin="round" stroke-linecap="butt" d="m569.90027 120.937004l1.4487915 159.05511" fill-rule="nonzero"></path><path fill="#434343" d="m640.79297 211.17354l0 0c0 -7.070984 6.599365 -12.803146 14.740112 -12.803146l0 0c8.140808 0 14.740173 5.7321625 14.740173 12.803146l0 0c0 7.070984 -6.599365 12.803146 -14.740173 12.803146l0 0c-8.140747 0 -14.740112 -5.7321625 -14.740112 -12.803146z" fill-rule="nonzero"></path><path stroke="#000000" stroke-width="1.0" stroke-linejoin="round" stroke-linecap="butt" d="m640.79297 211.17354l0 0c0 -7.070984 6.599365 -12.803146 14.740112 -12.803146l0 0c8.140808 0 14.740173 5.7321625 14.740173 12.803146l0 0c0 7.070984 -6.599365 12.803146 -14.740173 12.803146l0 0c-8.140747 0 -14.740112 -5.7321625 -14.740112 -12.803146z" fill-rule="nonzero"></path><path fill="#000000" fill-opacity="0.0" d="m670.27325 211.17354c66.02362 0 99.03546 -28.354324 132.04724 -56.708664c33.01184 -28.354324 66.02362 -56.708656 132.04724 -56.708656" fill-rule="nonzero"></path><path stroke="#000000" stroke-width="4.0" stroke-linejoin="round" stroke-linecap="butt" d="m670.27325 211.17354c66.02368 0 99.03546 -28.35434 132.0473 -56.70865c16.50586 -14.17717 33.01178 -28.354332 53.644165 -38.987213c10.316223 -5.316437 21.664062 -9.746796 34.559204 -12.848053c6.447693 -1.5506287 13.282166 -2.7689743 20.567932 -3.5996628c1.8214722 -0.20767975 3.6710815 -0.39112854 5.550049 -0.54948425c0.9393921 -0.07917023 1.8861694 -0.15207672 2.840271 -0.21858978l1.1838989 -0.07826233" fill-rule="evenodd"></path><path fill="#000000" stroke="#000000" stroke-width="4.0" stroke-linecap="butt" d="m920.6661 98.183624l-4.355896 4.6363983l12.21283 -4.8814774l-12.493286 -4.110817z" fill-rule="evenodd"></path><path fill="#000000" fill-opacity="0.0" d="m596.1312 111.267715l144.12598 0l0 52.91339l-144.12598 0z" fill-rule="nonzero"></path><path fill="#000000" d="m608.3031 166.34772l0 -24.890625l3.796875 0l0 3.53125q2.734375 -4.09375 7.921875 -4.09375q2.25 0 4.125 0.8125q1.890625 0.796875 2.828125 2.109375q0.9375 1.3125 1.3125 3.125q0.234375 1.171875 0.234375 4.09375l0 15.3125l-4.21875 0l0 -15.140625q0 -2.578125 -0.5 -3.859375q-0.484375 -1.28125 -1.734375 -2.03125q-1.25 -0.765625 -2.9375 -0.765625q-2.703125 0 -4.65625 1.71875q-1.953125 1.703125 -1.953125 6.484375l0 13.59375l-4.21875 0zm43.726562 -8.015625l4.359375 0.53125q-1.03125 3.828125 -3.828125 5.9375q-2.78125 2.109375 -7.109375 2.109375q-5.46875 0 -8.671875 -3.359375q-3.1875 -3.375 -3.1875 -9.4375q0 -6.28125 3.234375 -9.75q3.234375 -3.46875 8.390625 -3.46875q4.984375 0 8.140625 3.40625q3.171875 3.390625 3.171875 9.546875q0 0.375 -0.015625 1.125l-18.5625 0q0.234375 4.109375 2.3125 6.296875q2.09375 2.171875 5.203125 2.171875q2.328125 0 3.96875 -1.21875q1.640625 -1.21875 2.59375 -3.890625zm-13.84375 -6.828125l13.890625 0q-0.28125 -3.140625 -1.59375 -4.703125q-2.015625 -2.4375 -5.21875 -2.4375q-2.90625 0 -4.890625 1.953125q-1.984375 1.9375 -2.1875 5.1875zm20.695312 14.84375l9.09375 -12.9375l-8.421875 -11.953125l5.28125 0l3.8125 5.828125q1.078125 1.671875 1.734375 2.796875q1.03125 -1.546875 1.90625 -2.75l4.1875 -5.875l5.046875 0l-8.609375 11.71875l9.265625 13.171875l-5.1875 0l-5.109375 -7.734375l-1.359375 -2.09375l-6.53125 9.828125l-5.109375 0zm36.015625 -3.78125l0.609375 3.734375q-1.78125 0.375 -3.1875 0.375q-2.296875 0 -3.5625 -0.71875q-1.265625 -0.734375 -1.78125 -1.921875q-0.515625 -1.1875 -0.515625 -4.984375l0 -14.3125l-3.09375 0l0 -3.28125l3.09375 0l0 -6.171875l4.203125 -2.53125l0 8.703125l4.234375 0l0 3.28125l-4.234375 0l0 14.546875q0 1.8125 0.21875 2.328125q0.21875 0.515625 0.71875 0.828125q0.515625 0.296875 1.453125 0.296875q0.703125 0 1.84375 -0.171875z" fill-rule="nonzero"></path><path fill="#000000" fill-opacity="0.0" d="m856.5066 150.75853l240.22046 0l0 97.732285l-240.22046 0z" fill-rule="nonzero"></path><path fill="#000000" d="m867.97534 190.47853l0 -22.90625l8.640625 0q2.28125 0 3.484375 0.21875q1.6875 0.28125 2.828125 1.078125q1.140625 0.78125 1.828125 2.203125q0.703125 1.421875 0.703125 3.125q0 2.921875 -1.859375 4.953125q-1.859375 2.015625 -6.71875 2.015625l-5.875 0l0 9.3125l-3.03125 0zm3.03125 -12.015625l5.921875 0q2.9375 0 4.171875 -1.09375q1.234375 -1.09375 1.234375 -3.078125q0 -1.4375 -0.734375 -2.453125q-0.71875 -1.03125 -1.90625 -1.359375q-0.765625 -0.203125 -2.828125 -0.203125l-5.859375 0l0 8.1875zm16.90625 3.71875q0 -4.609375 2.5625 -6.828125q2.140625 -1.84375 5.21875 -1.84375q3.421875 0 5.59375 2.25q2.171875 2.234375 2.171875 6.1875q0 3.203125 -0.96875 5.046875q-0.953125 1.828125 -2.796875 2.84375q-1.828125 1.015625 -4.0 1.015625q-3.484375 0 -5.640625 -2.234375q-2.140625 -2.234375 -2.140625 -6.4375zm2.890625 0q0 3.1875 1.390625 4.78125q1.390625 1.578125 3.5 1.578125q2.09375 0 3.484375 -1.59375q1.390625 -1.59375 1.390625 -4.859375q0 -3.078125 -1.40625 -4.65625q-1.390625 -1.59375 -3.46875 -1.59375q-2.109375 0 -3.5 1.578125q-1.390625 1.578125 -1.390625 4.765625zm15.96875 -11.375l0 -3.234375l2.8125 0l0 3.234375l-2.8125 0zm0 19.671875l0 -16.59375l2.8125 0l0 16.59375l-2.8125 0zm7.09375 0l0 -16.59375l2.53125 0l0 2.359375q1.828125 -2.734375 5.28125 -2.734375q1.5 0 2.75 0.546875q1.265625 0.53125 1.890625 1.40625q0.625 0.875 0.875 2.078125q0.15625 0.78125 0.15625 2.734375l0 10.203125l-2.8125 0l0 -10.09375q0 -1.71875 -0.328125 -2.5625q-0.328125 -0.859375 -1.171875 -1.359375q-0.828125 -0.515625 -1.953125 -0.515625q-1.796875 0 -3.109375 1.140625q-1.296875 1.140625 -1.296875 4.328125l0 9.0625l-2.8125 0zm23.9375 -2.515625l0.40625 2.484375q-1.1875 0.25 -2.125 0.25q-1.53125 0 -2.375 -0.484375q-0.84375 -0.484375 -1.1875 -1.265625q-0.34375 -0.796875 -0.34375 -3.328125l0 -9.546875l-2.0625 0l0 -2.1875l2.0625 0l0 -4.109375l2.796875 -1.6875l0 5.796875l2.828125 0l0 2.1875l-2.828125 0l0 9.703125q0 1.203125 0.140625 1.546875q0.15625 0.34375 0.484375 0.546875q0.34375 0.203125 0.96875 0.203125q0.46875 0 1.234375 -0.109375zm14.109375 -2.828125l2.90625 0.359375q-0.6875 2.546875 -2.546875 3.953125q-1.859375 1.40625 -4.75 1.40625q-3.640625 0 -5.78125 -2.234375q-2.125 -2.25 -2.125 -6.296875q0 -4.1875 2.15625 -6.5q2.15625 -2.3125 5.59375 -2.3125q3.328125 0 5.4375 2.265625q2.109375 2.265625 2.109375 6.375q0 0.25 -0.015625 0.75l-12.375 0q0.15625 2.734375 1.546875 4.1875q1.390625 1.453125 3.46875 1.453125q1.546875 0 2.640625 -0.8125q1.09375 -0.8125 1.734375 -2.59375zm-9.234375 -4.546875l9.265625 0q-0.1875 -2.09375 -1.0625 -3.140625q-1.34375 -1.625 -3.484375 -1.625q-1.9375 0 -3.265625 1.296875q-1.3125 1.296875 -1.453125 3.46875zm15.640625 9.890625l0 -16.59375l2.53125 0l0 2.515625q0.96875 -1.765625 1.78125 -2.328125q0.828125 -0.5625 1.8125 -0.5625q1.421875 0 2.890625 0.90625l-0.96875 2.609375q-1.03125 -0.609375 -2.0625 -0.609375q-0.921875 0 -1.65625 0.5625q-0.734375 0.546875 -1.046875 1.53125q-0.46875 1.5 -0.46875 3.28125l0 8.6875l-2.8125 0zm25.71875 -2.515625l0.40625 2.484375q-1.1875 0.25 -2.125 0.25q-1.53125 0 -2.375 -0.484375q-0.84375 -0.484375 -1.1875 -1.265625q-0.34375 -0.796875 -0.34375 -3.328125l0 -9.546875l-2.0625 0l0 -2.1875l2.0625 0l0 -4.109375l2.796875 -1.6875l0 5.796875l2.828125 0l0 2.1875l-2.828125 0l0 9.703125q0 1.203125 0.140625 1.546875q0.15625 0.34375 0.484375 0.546875q0.34375 0.203125 0.96875 0.203125q0.46875 0 1.234375 -0.109375zm1.703125 -5.78125q0 -4.609375 2.5625 -6.828125q2.140625 -1.84375 5.21875 -1.84375q3.421875 0 5.59375 2.25q2.171875 2.234375 2.171875 6.1875q0 3.203125 -0.96875 5.046875q-0.953125 1.828125 -2.796875 2.84375q-1.828125 1.015625 -4.0 1.015625q-3.484375 0 -5.640625 -2.234375q-2.140625 -2.234375 -2.140625 -6.4375zm2.890625 0q0 3.1875 1.390625 4.78125q1.390625 1.578125 3.5 1.578125q2.09375 0 3.484375 -1.59375q1.390625 -1.59375 1.390625 -4.859375q0 -3.078125 -1.40625 -4.65625q-1.390625 -1.59375 -3.46875 -1.59375q-2.109375 0 -3.5 1.578125q-1.390625 1.578125 -1.390625 4.765625zm24.84375 8.296875l0 -16.59375l2.53125 0l0 2.359375q1.828125 -2.734375 5.28125 -2.734375q1.5 0 2.75 0.546875q1.265625 0.53125 1.890625 1.40625q0.625 0.875 0.875 2.078125q0.15625 0.78125 0.15625 2.734375l0 10.203125l-2.8125 0l0 -10.09375q0 -1.71875 -0.328125 -2.5625q-0.328125 -0.859375 -1.171875 -1.359375q-0.828125 -0.515625 -1.953125 -0.515625q-1.796875 0 -3.109375 1.140625q-1.296875 1.140625 -1.296875 4.328125l0 9.0625l-2.8125 0zm29.15625 -5.34375l2.90625 0.359375q-0.6875 2.546875 -2.546875 3.953125q-1.859375 1.40625 -4.75 1.40625q-3.640625 0 -5.78125 -2.234375q-2.125 -2.25 -2.125 -6.296875q0 -4.1875 2.15625 -6.5q2.15625 -2.3125 5.59375 -2.3125q3.328125 0 5.4375 2.265625q2.109375 2.265625 2.109375 6.375q0 0.25 -0.015625 0.75l-12.375 0q0.15625 2.734375 1.546875 4.1875q1.390625 1.453125 3.46875 1.453125q1.546875 0 2.640625 -0.8125q1.09375 -0.8125 1.734375 -2.59375zm-9.234375 -4.546875l9.265625 0q-0.1875 -2.09375 -1.0625 -3.140625q-1.34375 -1.625 -3.484375 -1.625q-1.9375 0 -3.265625 1.296875q-1.3125 1.296875 -1.453125 3.46875zm13.796875 9.890625l6.0625 -8.625l-5.609375 -7.96875l3.515625 0l2.546875 3.890625q0.71875 1.109375 1.15625 1.859375q0.6875 -1.03125 1.265625 -1.828125l2.796875 -3.921875l3.359375 0l-5.734375 7.8125l6.171875 8.78125l-3.453125 0l-3.40625 -5.15625l-0.90625 -1.390625l-4.359375 6.546875l-3.40625 0zm24.015625 -2.515625l0.40625 2.484375q-1.1875 0.25 -2.125 0.25q-1.53125 0 -2.375 -0.484375q-0.84375 -0.484375 -1.1875 -1.265625q-0.34375 -0.796875 -0.34375 -3.328125l0 -9.546875l-2.0625 0l0 -2.1875l2.0625 0l0 -4.109375l2.796875 -1.6875l0 5.796875l2.828125 0l0 2.1875l-2.828125 0l0 9.703125q0 1.203125 0.140625 1.546875q0.15625 0.34375 0.484375 0.546875q0.34375 0.203125 0.96875 0.203125q0.46875 0 1.234375 -0.109375z" fill-rule="nonzero"></path><path fill="#000000" fill-opacity="0.0" d="m64.20998 425.52756l395.43304 0l0 71.24411l-395.43304 0z" fill-rule="nonzero"></path><path fill="#000000" d="m78.11623 495.96756l0 -45.4375l9.25 0l0 37.71875l23.0 0l0 7.71875l-32.25 0zm38.78125 -37.6875l0 -8.125l8.78125 0l0 8.125l-8.78125 0zm0 37.6875l0 -33.1875l8.78125 0l0 33.1875l-8.78125 0zm47.96875 0l-8.78125 0l0 -16.9375q0 -5.375 -0.5625 -6.953125q-0.5625 -1.578125 -1.828125 -2.453125q-1.265625 -0.875 -3.046875 -0.875q-2.28125 0 -4.09375 1.25q-1.8125 1.25 -2.484375 3.3125q-0.671875 2.0625 -0.671875 7.625l0 15.03125l-8.78125 0l0 -33.1875l8.15625 0l0 4.875q4.34375 -5.625 10.9375 -5.625q2.90625 0 5.3125 1.046875q2.40625 1.046875 3.640625 2.671875q1.234375 1.625 1.71875 3.6875q0.484375 2.0625 0.484375 5.90625l0 20.625zm8.59375 0l0 -45.8125l8.78125 0l0 24.3125l10.28125 -11.6875l10.8125 0l-11.34375 12.125l12.15625 21.0625l-9.46875 0l-8.34375 -14.90625l-4.09375 4.28125l0 10.625l-8.78125 0zm55.125 -10.5625l8.75 1.46875q-1.6875 4.8125 -5.328125 7.328125q-3.640625 2.515625 -9.109375 2.515625q-8.65625 0 -12.8125 -5.65625q-3.28125 -4.53125 -3.28125 -11.4375q0 -8.25 4.3125 -12.921875q4.3125 -4.671875 10.90625 -4.671875q7.40625 0 11.6875 4.890625q4.28125 4.890625 4.09375 14.984375l-22.0 0q0.09375 3.90625 2.125 6.078125q2.03125 2.171875 5.0625 2.171875q2.0625 0 3.46875 -1.125q1.40625 -1.125 2.125 -3.625zm0.5 -8.875q-0.09375 -3.8125 -1.96875 -5.796875q-1.875 -1.984375 -4.5625 -1.984375q-2.875 0 -4.75 2.09375q-1.875 2.09375 -1.84375 5.6875l13.125 0zm46.312485 19.4375l-8.15625 0l0 -4.875q-2.03125 2.84375 -4.796875 4.234375q-2.765625 1.390625 -5.578125 1.390625q-5.7187347 0 -9.79686 -4.609375q-4.078125 -4.609375 -4.078125 -12.859375q0 -8.4375 3.96875 -12.828125q3.96875 -4.390625 10.031235 -4.390625q5.5625 0 9.625 4.625l0 -16.5l8.78125 0l0 45.8125zm-23.437485 -17.3125q0 5.3125 1.46875 7.6875q2.125 3.4375 5.9374847 3.4375q3.03125 0 5.15625 -2.578125q2.125 -2.578125 2.125 -7.703125q0 -5.71875 -2.0625 -8.234375q-2.0625 -2.515625 -5.28125 -2.515625q-3.125 0 -5.2343597 2.484375q-2.109375 2.484375 -2.109375 7.421875zm50.187485 17.3125l0 -45.4375l9.25 0l0 37.71875l23.0 0l0 7.71875l-32.25 0zm38.78125 -37.6875l0 -8.125l8.78125 0l0 8.125l-8.78125 0zm0 37.6875l0 -33.1875l8.78125 0l0 33.1875l-8.78125 0zm14.6875 -9.46875l8.8125 -1.34375q0.5625 2.5625 2.28125 3.890625q1.71875 1.328125 4.8125 1.328125q3.40625 0 5.125 -1.25q1.15625 -0.875 1.15625 -2.34375q0 -1.0 -0.625 -1.65625q-0.65625 -0.625 -2.9375 -1.15625q-10.625 -2.34375 -13.46875 -4.28125q-3.9375 -2.6875 -3.9375 -7.46875q0 -4.3125 3.40625 -7.25q3.40625 -2.9375 10.5625 -2.9375q6.8125 0 10.125 2.21875q3.3125 2.21875 4.5625 6.5625l-8.28125 1.53125q-0.53125 -1.9375 -2.015625 -2.96875q-1.484375 -1.03125 -4.234375 -1.03125q-3.46875 0 -4.96875 0.96875q-1.0 0.6875 -1.0 1.78125q0 0.9375 0.875 1.59375q1.1875 0.875 8.203125 2.46875q7.015625 1.59375 9.796875 3.90625q2.75 2.34375 2.75 6.53125q0 4.5625 -3.8125 7.84375q-3.8125 3.28125 -11.28125 3.28125q-6.78125 0 -10.734375 -2.75q-3.953125 -2.75 -5.171875 -7.46875zm53.90625 -23.71875l0 7.0l-6.0 0l0 13.375q0 4.0625 0.171875 4.734375q0.171875 0.671875 0.78125 1.109375q0.609375 0.4375 1.484375 0.4375q1.21875 0 3.53125 -0.84375l0.75 6.8125q-3.0625 1.3125 -6.9375 1.3125q-2.375 0 -4.28125 -0.796875q-1.90625 -0.796875 -2.796875 -2.0625q-0.890625 -1.265625 -1.234375 -3.421875q-0.28125 -1.53125 -0.28125 -6.1875l0 -14.46875l-4.03125 0l0 -7.0l4.03125 0l0 -6.59375l8.8125 -5.125l0 11.71875l6.0 0z" fill-rule="nonzero"></path><path fill="#cfe2f3" d="m212.49606 562.3493l0 0c0 -6.5579834 5.316284 -11.874268 11.874252 -11.874268l127.84206 0c3.149231 0 6.1694946 1.2510376 8.396362 3.4779053c2.2268372 2.2268677 3.4778748 5.2471313 3.4778748 8.396362l0 47.495605c0 6.5579834 -5.316284 11.874268 -11.874237 11.874268l-127.84206 0c-6.557968 0 -11.874252 -5.316284 -11.874252 -11.874268z" fill-rule="nonzero"></path><path stroke="#000000" stroke-width="1.0" stroke-linejoin="round" stroke-linecap="butt" d="m212.49606 562.3493l0 0c0 -6.5579834 5.316284 -11.874268 11.874252 -11.874268l127.84206 0c3.149231 0 6.1694946 1.2510376 8.396362 3.4779053c2.2268372 2.2268677 3.4778748 5.2471313 3.4778748 8.396362l0 47.495605c0 6.5579834 -5.316284 11.874268 -11.874237 11.874268l-127.84206 0c-6.557968 0 -11.874252 -5.316284 -11.874252 -11.874268z" fill-rule="nonzero"></path><path fill="#434343" d="m335.01312 586.6562l0 0c0 -4.0877686 3.3138123 -7.4016113 7.401581 -7.4016113l0 0c1.9630127 0 3.845642 0.7798462 5.2337036 2.1679077c1.3880615 1.3880615 2.1678772 3.270691 2.1678772 5.2337036l0 0c0 4.0877686 -3.3138123 7.4015503 -7.401581 7.4015503l0 0c-4.0877686 0 -7.401581 -3.3137817 -7.401581 -7.4015503z" fill-rule="nonzero"></path><path stroke="#000000" stroke-width="1.0" stroke-linejoin="round" stroke-linecap="butt" d="m335.01312 586.6562l0 0c0 -4.0877686 3.3138123 -7.4016113 7.401581 -7.4016113l0 0c1.9630127 0 3.845642 0.7798462 5.2337036 2.1679077c1.3880615 1.3880615 2.1678772 3.270691 2.1678772 5.2337036l0 0c0 4.0877686 -3.3138123 7.4015503 -7.401581 7.4015503l0 0c-4.0877686 0 -7.401581 -3.3137817 -7.401581 -7.4015503z" fill-rule="nonzero"></path><path fill="#cfe2f3" d="m396.49606 562.3493l0 0c0 -6.5579834 5.316284 -11.874268 11.874268 -11.874268l127.84201 0c3.149292 0 6.1695557 1.2510376 8.396362 3.4779053c2.2268677 2.2268677 3.4779053 5.2471313 3.4779053 8.396362l0 47.495605c0 6.5579834 -5.316284 11.874268 -11.874268 11.874268l-127.84201 0c-6.5579834 0 -11.874268 -5.316284 -11.874268 -11.874268z" fill-rule="nonzero"></path><path stroke="#000000" stroke-width="1.0" stroke-linejoin="round" stroke-linecap="butt" d="m396.49606 562.3493l0 0c0 -6.5579834 5.316284 -11.874268 11.874268 -11.874268l127.84201 0c3.149292 0 6.1695557 1.2510376 8.396362 3.4779053c2.2268677 2.2268677 3.4779053 5.2471313 3.4779053 8.396362l0 47.495605c0 6.5579834 -5.316284 11.874268 -11.874268 11.874268l-127.84201 0c-6.5579834 0 -11.874268 -5.316284 -11.874268 -11.874268z" fill-rule="nonzero"></path><path fill="#434343" d="m519.0131 586.6562l0 0c0 -4.0877686 3.3137817 -7.4016113 7.4015503 -7.4016113l0 0c1.9630737 0 3.845642 0.7798462 5.2337036 2.1679077c1.3880615 1.3880615 2.1679077 3.270691 2.1679077 5.2337036l0 0c0 4.0877686 -3.3137817 7.4015503 -7.4016113 7.4015503l0 0c-4.0877686 0 -7.4015503 -3.3137817 -7.4015503 -7.4015503z" fill-rule="nonzero"></path><path stroke="#000000" stroke-width="1.0" stroke-linejoin="round" stroke-linecap="butt" d="m519.0131 586.6562l0 0c0 -4.0877686 3.3137817 -7.4016113 7.4015503 -7.4016113l0 0c1.9630737 0 3.845642 0.7798462 5.2337036 2.1679077c1.3880615 1.3880615 2.1679077 3.270691 2.1679077 5.2337036l0 0c0 4.0877686 -3.3137817 7.4015503 -7.4016113 7.4015503l0 0c-4.0877686 0 -7.4015503 -3.3137817 -7.4015503 -7.4015503z" fill-rule="nonzero"></path><path fill="#cfe2f3" d="m594.7664 562.9084l0 0c0 -6.5579834 5.316284 -11.874268 11.874268 -11.874268l127.84204 0c3.149231 0 6.1694946 1.2510376 8.396362 3.4779053c2.2268066 2.2268677 3.4778442 5.2471313 3.4778442 8.396362l0 47.495605c0 6.5579224 -5.316284 11.874207 -11.874207 11.874207l-127.84204 0c-6.5579834 0 -11.874268 -5.316284 -11.874268 -11.874207z" fill-rule="nonzero"></path><path stroke="#000000" stroke-width="1.0" stroke-linejoin="round" stroke-linecap="butt" d="m594.7664 562.9084l0 0c0 -6.5579834 5.316284 -11.874268 11.874268 -11.874268l127.84204 0c3.149231 0 6.1694946 1.2510376 8.396362 3.4779053c2.2268066 2.2268677 3.4778442 5.2471313 3.4778442 8.396362l0 47.495605c0 6.5579224 -5.316284 11.874207 -11.874207 11.874207l-127.84204 0c-6.5579834 0 -11.874268 -5.316284 -11.874268 -11.874207z" fill-rule="nonzero"></path><path fill="#434343" d="m717.28345 587.2152l0 0c0 -4.0877686 3.3138428 -7.4015503 7.4016113 -7.4015503l0 0c1.9630127 0 3.845642 0.77978516 5.2337036 2.1678467c1.3880615 1.3880615 2.1678467 3.270691 2.1678467 5.2337036l0 0c0 4.0877686 -3.3137817 7.4016113 -7.4015503 7.4016113l0 0c-4.0877686 0 -7.4016113 -3.3138428 -7.4016113 -7.4016113z" fill-rule="nonzero"></path><path stroke="#000000" stroke-width="1.0" stroke-linejoin="round" stroke-linecap="butt" d="m717.28345 587.2152l0 0c0 -4.0877686 3.3138428 -7.4015503 7.4016113 -7.4015503l0 0c1.9630127 0 3.845642 0.77978516 5.2337036 2.1678467c1.3880615 1.3880615 2.1678467 3.270691 2.1678467 5.2337036l0 0c0 4.0877686 -3.3137817 7.4016113 -7.4015503 7.4016113l0 0c-4.0877686 0 -7.4016113 -3.3138428 -7.4016113 -7.4016113z" fill-rule="nonzero"></path><path fill="#cfe2f3" d="m778.7664 562.9084l0 0c0 -6.5579834 5.316284 -11.874268 11.874268 -11.874268l127.84204 0c3.149231 0 6.1694946 1.2510376 8.396362 3.4779053c2.2268066 2.2268677 3.4778442 5.2471313 3.4778442 8.396362l0 47.495605c0 6.5579224 -5.316284 11.874207 -11.874207 11.874207l-127.84204 0c-6.5579834 0 -11.874268 -5.316284 -11.874268 -11.874207z" fill-rule="nonzero"></path><path stroke="#000000" stroke-width="1.0" stroke-linejoin="round" stroke-linecap="butt" d="m778.7664 562.9084l0 0c0 -6.5579834 5.316284 -11.874268 11.874268 -11.874268l127.84204 0c3.149231 0 6.1694946 1.2510376 8.396362 3.4779053c2.2268066 2.2268677 3.4778442 5.2471313 3.4778442 8.396362l0 47.495605c0 6.5579224 -5.316284 11.874207 -11.874207 11.874207l-127.84204 0c-6.5579834 0 -11.874268 -5.316284 -11.874268 -11.874207z" fill-rule="nonzero"></path><path fill="#434343" d="m901.28345 587.2152l0 0c0 -4.0877686 3.3138428 -7.4015503 7.4016113 -7.4015503l0 0c1.9630127 0 3.845642 0.77978516 5.2337036 2.1678467c1.3880615 1.3880615 2.1678467 3.270691 2.1678467 5.2337036l0 0c0 4.0877686 -3.3137817 7.4016113 -7.4015503 7.4016113l0 0c-4.0877686 0 -7.4016113 -3.3138428 -7.4016113 -7.4016113z" fill-rule="nonzero"></path><path stroke="#000000" stroke-width="1.0" stroke-linejoin="round" stroke-linecap="butt" d="m901.28345 587.2152l0 0c0 -4.0877686 3.3138428 -7.4015503 7.4016113 -7.4015503l0 0c1.9630127 0 3.845642 0.77978516 5.2337036 2.1678467c1.3880615 1.3880615 2.1678467 3.270691 2.1678467 5.2337036l0 0c0 4.0877686 -3.3137817 7.4016113 -7.4015503 7.4016113l0 0c-4.0877686 0 -7.4016113 -3.3138428 -7.4016113 -7.4016113z" fill-rule="nonzero"></path><path fill="#cfe2f3" d="m991.30707 563.4674l0 0c0 -6.5579224 5.316284 -11.874207 11.874268 -11.874207l127.8421 0c3.14917 0 6.1694336 1.2510376 8.396362 3.4778442c2.2268066 2.2268677 3.4777832 5.2471313 3.4777832 8.396362l0 47.495605c0 6.5579834 -5.316284 11.874268 -11.8741455 11.874268l-127.8421 0c-6.5579834 0 -11.874268 -5.316284 -11.874268 -11.874268z" fill-rule="nonzero"></path><path stroke="#000000" stroke-width="1.0" stroke-linejoin="round" stroke-linecap="butt" d="m991.30707 563.4674l0 0c0 -6.5579224 5.316284 -11.874207 11.874268 -11.874207l127.8421 0c3.14917 0 6.1694336 1.2510376 8.396362 3.4778442c2.2268066 2.2268677 3.4777832 5.2471313 3.4777832 8.396362l0 47.495605c0 6.5579834 -5.316284 11.874268 -11.8741455 11.874268l-127.8421 0c-6.5579834 0 -11.874268 -5.316284 -11.874268 -11.874268z" fill-rule="nonzero"></path><path fill="#434343" d="m1113.8241 587.7743l0 0c0 -4.0877686 3.3138428 -7.4016113 7.4016113 -7.4016113l0 0c1.9630127 0 3.8457031 0.7798462 5.2337646 2.1679077c1.3880615 1.3880615 2.1678467 3.270691 2.1678467 5.2337036l0 0c0 4.0877686 -3.3138428 7.4015503 -7.4016113 7.4015503l0 0c-4.0877686 0 -7.4016113 -3.3137817 -7.4016113 -7.4015503z" fill-rule="nonzero"></path><path stroke="#000000" stroke-width="1.0" stroke-linejoin="round" stroke-linecap="butt" d="m1113.8241 587.7743l0 0c0 -4.0877686 3.3138428 -7.4016113 7.4016113 -7.4016113l0 0c1.9630127 0 3.8457031 0.7798462 5.2337646 2.1679077c1.3880615 1.3880615 2.1678467 3.270691 2.1678467 5.2337036l0 0c0 4.0877686 -3.3138428 7.4015503 -7.4016113 7.4015503l0 0c-4.0877686 0 -7.4016113 -3.3137817 -7.4016113 -7.4015503z" fill-rule="nonzero"></path><path fill="#cfe2f3" d="m1175.3071 563.4674l0 0c0 -6.5579224 5.316284 -11.874207 11.874268 -11.874207l127.84204 0c3.14917 0 6.1694336 1.2510376 8.396362 3.4778442c2.2268066 2.2268677 3.4777832 5.2471313 3.4777832 8.396362l0 47.495605c0 6.5579834 -5.316284 11.874268 -11.8741455 11.874268l-127.84204 0c-6.5579834 0 -11.874268 -5.316284 -11.874268 -11.874268z" fill-rule="nonzero"></path><path stroke="#000000" stroke-width="1.0" stroke-linejoin="round" stroke-linecap="butt" d="m1175.3071 563.4674l0 0c0 -6.5579224 5.316284 -11.874207 11.874268 -11.874207l127.84204 0c3.14917 0 6.1694336 1.2510376 8.396362 3.4778442c2.2268066 2.2268677 3.4777832 5.2471313 3.4777832 8.396362l0 47.495605c0 6.5579834 -5.316284 11.874268 -11.8741455 11.874268l-127.84204 0c-6.5579834 0 -11.874268 -5.316284 -11.874268 -11.874268z" fill-rule="nonzero"></path><path fill="#434343" d="m1297.8241 587.7743l0 0c0 -4.0877686 3.3138428 -7.4016113 7.4016113 -7.4016113l0 0c1.9630127 0 3.8457031 0.7798462 5.2337646 2.1679077c1.3880615 1.3880615 2.1678467 3.270691 2.1678467 5.2337036l0 0c0 4.0877686 -3.3138428 7.4015503 -7.4016113 7.4015503l0 0c-4.0877686 0 -7.4016113 -3.3137817 -7.4016113 -7.4015503z" fill-rule="nonzero"></path><path stroke="#000000" stroke-width="1.0" stroke-linejoin="round" stroke-linecap="butt" d="m1297.8241 587.7743l0 0c0 -4.0877686 3.3138428 -7.4016113 7.4016113 -7.4016113l0 0c1.9630127 0 3.8457031 0.7798462 5.2337646 2.1679077c1.3880615 1.3880615 2.1678467 3.270691 2.1678467 5.2337036l0 0c0 4.0877686 -3.3138428 7.4015503 -7.4016113 7.4015503l0 0c-4.0877686 0 -7.4016113 -3.3137817 -7.4016113 -7.4015503z" fill-rule="nonzero"></path><path fill="#000000" fill-opacity="0.0" d="m347.6484 581.4225c0 -13.583923 7.580139 -25.66748 12.753845 -27.167908c5.1737366 -1.5004272 7.9410095 7.5822144 12.753876 15.914673c4.812866 8.332397 11.671326 15.914612 23.342682 15.914612" fill-rule="nonzero"></path><path stroke="#000000" stroke-width="3.0" stroke-linejoin="round" stroke-linecap="butt" d="m347.6484 581.4224c0 -13.583862 7.580139 -25.667358 12.753876 -27.167847c5.173706 -1.5003662 7.940979 7.5822144 12.753845 15.914673c2.4064636 4.1661987 5.32428 8.144897 9.099396 11.08197c0.9437866 0.7342529 1.9411621 1.4034424 2.9974976 1.9942017c0.26412964 0.14764404 0.53189087 0.2904663 0.8034363 0.42816162l0.40182495 0.19848633" fill-rule="evenodd"></path><path fill="#000000" stroke="#000000" stroke-width="3.0" stroke-linecap="butt" d="m386.45828 583.8721l-4.0205383 2.5689697l9.778046 -1.3006592l-8.326477 -5.2888794z" fill-rule="evenodd"></path><path fill="#000000" fill-opacity="0.0" d="m531.6483 581.4278c15.77948 0 23.66925 1.3071289 31.559021 2.6141968c7.8897705 1.3070679 15.779541 2.6141968 31.559082 2.6141968" fill-rule="nonzero"></path><path stroke="#000000" stroke-width="1.0" stroke-linejoin="round" stroke-linecap="butt" d="m531.6483 581.4278c15.77948 0 23.66925 1.3071289 31.559021 2.6141968c7.8897705 1.3070679 15.779541 2.6141968 31.559082 2.6141968" fill-rule="nonzero"></path><path fill="#000000" fill-opacity="0.0" d="m724.68506 579.81366c0 -12.5 8.975647 -23.78894 15.370789 -25.0c6.3951416 -1.2109985 10.209717 7.655945 15.370789 15.917297c5.161072 8.261414 11.668579 15.917358 23.337158 15.917358" fill-rule="nonzero"></path><path stroke="#000000" stroke-width="3.0" stroke-linejoin="round" stroke-linecap="butt" d="m724.68506 579.81366c0 -12.5 8.975647 -23.789001 15.370789 -25.0c6.3950806 -1.2109985 10.209717 7.655884 15.37085 15.917297c2.5805054 4.1307373 5.4976196 8.110107 9.228149 11.056702c0.9326782 0.7366333 1.9161987 1.4087524 2.9579468 2.0026245c0.26049805 0.1484375 0.52453613 0.2919922 0.79241943 0.43041992l0.32922363 0.16583252" fill-rule="evenodd"></path><path fill="#000000" stroke="#000000" stroke-width="3.0" stroke-linecap="butt" d="m768.7344 584.38654l-4.033264 2.5489502l9.784424 -1.2520142l-8.300049 -5.3302z" fill-rule="evenodd"></path><path fill="#000000" fill-opacity="0.0" d="m908.69293 579.81366c20.653503 0 30.980286 1.8504028 41.307068 3.7008057c10.326782 1.8503418 20.653564 3.7007446 41.307068 3.7007446" fill-rule="nonzero"></path><path stroke="#000000" stroke-width="3.0" stroke-linejoin="round" stroke-linecap="butt" d="m908.69293 579.81366c20.653503 0 30.980286 1.8504028 41.307068 3.7008057c5.163391 0.9251709 10.326782 1.8503418 16.781006 2.5442505c3.2271118 0.34698486 6.7769165 0.6361084 10.810852 0.838501c1.0084839 0.050598145 2.0471802 0.095703125 3.1187134 0.1350708l0.31671143 0.010559082" fill-rule="evenodd"></path><path fill="#000000" stroke="#000000" stroke-width="3.0" stroke-linecap="butt" d="m981.0273 587.04285l-3.4298706 3.3167114l9.324585 -3.2178955l-9.211426 -3.5286865z" fill-rule="evenodd"></path><path fill="#000000" fill-opacity="0.0" d="m1116.0 582.55383c14.099609 0 20.785889 1.1653442 28.19934 2.3306885c7.41333 1.1653442 15.553833 2.3306885 31.107788 2.3306885" fill-rule="nonzero"></path><path stroke="#000000" stroke-width="3.0" stroke-linejoin="round" stroke-linecap="butt" d="m1116.0 582.55383c14.099609 0 20.785889 1.1653442 28.19934 2.3306885c3.706665 0.5826416 7.595093 1.1653442 12.501221 1.602356c2.453003 0.21850586 5.1604004 0.40057373 8.226685 0.5280762l0.10046387 0.0038452148" fill-rule="evenodd"></path><path fill="#000000" stroke="#000000" stroke-width="3.0" stroke-linecap="butt" d="m1165.0277 587.0188l-3.437622 3.3087158l9.332153 -3.196045l-9.203247 -3.550232z" fill-rule="evenodd"></path><path fill="#000000" fill-opacity="0.0" d="m521.1916 581.4278c18.393738 0 27.590576 1.3071289 36.787415 2.6141968c9.196838 1.3070679 18.393677 2.6141968 36.787415 2.6141968" fill-rule="nonzero"></path><path stroke="#000000" stroke-width="3.0" stroke-linejoin="round" stroke-linecap="butt" d="m521.1916 581.4278c18.393738 0 27.590576 1.3071289 36.787415 2.6141968c4.5984497 0.65356445 9.196838 1.3070679 14.944885 1.7972412c2.8740234 0.24505615 6.0354004 0.44934082 9.62793 0.59228516c0.44909668 0.0178833 0.9048462 0.03479004 1.3677368 0.05065918l0.56677246 0.018005371" fill-rule="evenodd"></path><path fill="#000000" stroke="#000000" stroke-width="3.0" stroke-linecap="butt" d="m584.4863 586.5002l-3.4245605 3.3222046l9.319458 -3.232727l-9.217102 -3.514038z" fill-rule="evenodd"></path><path fill="#000000" fill-opacity="0.0" d="m1312.0945 584.0735c20.653564 0 30.980347 1.8504028 41.30713 3.7008057c10.326782 1.8504028 20.653564 3.7007446 41.307007 3.7007446" fill-rule="nonzero"></path><path stroke="#000000" stroke-width="3.0" stroke-linejoin="round" stroke-linecap="butt" d="m1312.0945 584.0735c20.653564 0 30.980347 1.8504028 41.30713 3.7008057c5.16333 0.9251709 10.326782 1.8504028 16.781006 2.5442505c3.2270508 0.34698486 6.7768555 0.6361084 10.810791 0.838501c1.0085449 0.050598145 2.0472412 0.09576416 3.1187744 0.1350708l0.3166504 0.010559082" fill-rule="evenodd"></path><path fill="#000000" stroke="#000000" stroke-width="3.0" stroke-linecap="butt" d="m1384.4288 591.3027l-3.4298096 3.3167114l9.324585 -3.2178345l-9.211426 -3.5286865z" fill-rule="evenodd"></path><path fill="#000000" fill-opacity="0.0" d="m112.779526 713.5617c0 -63.7323 49.858276 -127.4646 99.71654 -127.4646" fill-rule="nonzero"></path><path stroke="#000000" stroke-width="4.0" stroke-linejoin="round" stroke-linecap="butt" d="m113.69597 698.4294l0.06253815 -0.5166626c0.030647278 -0.24725342 0.06198883 -0.49450684 0.09403229 -0.7415161c0.064064026 -0.4942627 0.13091278 -0.9882202 0.200531 -1.4817505c0.27843475 -1.97406 0.60100555 -3.9423828 0.9661865 -5.902893c1.4606857 -7.842102 3.603035 -15.559631 6.3296585 -23.02826c5.453247 -14.937256 13.243599 -28.878723 22.592033 -40.82849c9.348419 -11.949829 20.254913 -21.90802 31.940445 -28.878723c5.8427734 -3.4853516 11.880295 -6.223816 18.015198 -8.091003c1.5337372 -0.46679688 3.073532 -0.8791504 4.6179047 -1.2350464l0.36073303 -0.08148193" fill-rule="evenodd"></path><path fill="#000000" stroke="#000000" stroke-width="4.0" stroke-linecap="butt" d="m112.90043 711.5653c-3.627388 -0.21966553 -6.3898773 -3.3383179 -6.1701965 -6.9656982c0.21968842 -3.6273804 3.3383484 -6.3898926 6.9657364 -6.170227c3.627388 0.21972656 6.3898773 3.338379 6.1701965 6.9657593c-0.21968079 3.6273804 -3.3383484 6.3898926 -6.9657364 6.170166z" fill-rule="nonzero"></path><path fill="#000000" stroke="#000000" stroke-width="4.0" stroke-linecap="butt" d="m198.87523 587.6436l-3.9621582 4.977051l11.77272 -5.8638916l-12.787643 -3.0753174z" fill-rule="evenodd"></path><path fill="#000000" fill-opacity="0.0" d="m20.333334 724.6588l231.08662 0l0 105.3858l-231.08662 0z" fill-rule="nonzero"></path><path fill="#000000" d="m31.802084 764.3788l0 -22.90625l8.640623 0q2.28125 0 3.484375 0.21875q1.6875 0.28125 2.828125 1.078125q1.140625 0.78125 1.828125 2.203125q0.703125 1.421875 0.703125 3.125q0 2.921875 -1.859375 4.953125q-1.859375 2.015625 -6.71875 2.015625l-5.875 0l0 9.3125l-3.031248 0zm3.031248 -12.015625l5.921875 0q2.9375 0 4.171875 -1.09375q1.234375 -1.09375 1.234375 -3.078125q0 -1.4375 -0.734375 -2.453125q-0.71875 -1.03125 -1.90625 -1.359375q-0.765625 -0.203125 -2.828125 -0.203125l-5.859375 0l0 8.1875zm16.90625 3.71875q0 -4.609375 2.5625 -6.828125q2.140625 -1.84375 5.21875 -1.84375q3.421875 0 5.593754 2.25q2.171875 2.234375 2.171875 6.1875q0 3.203125 -0.96875 5.046875q-0.953125 1.828125 -2.7968788 2.84375q-1.828125 1.015625 -4.0 1.015625q-3.484375 0 -5.640625 -2.234375q-2.140625 -2.234375 -2.140625 -6.4375zm2.890625 0q0 3.1875 1.390625 4.78125q1.390625 1.578125 3.5 1.578125q2.09375 0 3.484375 -1.59375q1.3906288 -1.59375 1.3906288 -4.859375q0 -3.078125 -1.4062538 -4.65625q-1.390625 -1.59375 -3.46875 -1.59375q-2.109375 0 -3.5 1.578125q-1.390625 1.578125 -1.390625 4.765625zm15.968754 -11.375l0 -3.234375l2.8125 0l0 3.234375l-2.8125 0zm0 19.671875l0 -16.59375l2.8125 0l0 16.59375l-2.8125 0zm7.09375 0l0 -16.59375l2.53125 0l0 2.359375q1.828125 -2.734375 5.28125 -2.734375q1.5 0 2.75 0.546875q1.265625 0.53125 1.890625 1.40625q0.625 0.875 0.875 2.078125q0.15625 0.78125 0.15625 2.734375l0 10.203125l-2.8125 0l0 -10.09375q0 -1.71875 -0.328125 -2.5625q-0.328125 -0.859375 -1.171875 -1.359375q-0.828125 -0.515625 -1.953125 -0.515625q-1.796875 0 -3.109375 1.140625q-1.296875 1.140625 -1.296875 4.328125l0 9.0625l-2.8125 0zm23.9375 -2.515625l0.40625 2.484375q-1.1875 0.25 -2.125 0.25q-1.53125 0 -2.375 -0.484375q-0.84375 -0.484375 -1.1875 -1.265625q-0.34375 -0.796875 -0.34375 -3.328125l0 -9.546875l-2.0625 0l0 -2.1875l2.0625 0l0 -4.109375l2.796875 -1.6875l0 5.796875l2.828125 0l0 2.1875l-2.828125 0l0 9.703125q0 1.203125 0.140625 1.546875q0.15625 0.34375 0.484375 0.546875q0.34375 0.203125 0.96875 0.203125q0.46875 0 1.234375 -0.109375zm14.109375 -2.828125l2.90625 0.359375q-0.6875 2.546875 -2.546875 3.953125q-1.859375 1.40625 -4.75 1.40625q-3.640625 0 -5.78125 -2.234375q-2.125 -2.25 -2.125 -6.296875q0 -4.1875 2.15625 -6.5q2.15625 -2.3125 5.59375 -2.3125q3.328125 0 5.4375 2.265625q2.109375 2.265625 2.109375 6.375q0 0.25 -0.015625 0.75l-12.375 0q0.15625 2.734375 1.546875 4.1875q1.390625 1.453125 3.46875 1.453125q1.546875 0 2.640625 -0.8125q1.09375 -0.8125 1.734375 -2.59375zm-9.234375 -4.546875l9.265625 0q-0.1875 -2.09375 -1.0625 -3.140625q-1.34375 -1.625 -3.484375 -1.625q-1.9375 0 -3.265625 1.296875q-1.3125 1.296875 -1.453125 3.46875zm15.640625 9.890625l0 -16.59375l2.53125 0l0 2.515625q0.96875 -1.765625 1.78125 -2.328125q0.828125 -0.5625 1.8124924 -0.5625q1.421875 0 2.890625 0.90625l-0.96875 2.609375q-1.03125 -0.609375 -2.0625 -0.609375q-0.9218674 0 -1.6562424 0.5625q-0.734375 0.546875 -1.046875 1.53125q-0.46875 1.5 -0.46875 3.28125l0 8.6875l-2.8125 0zm25.718742 -2.515625l0.40625 2.484375q-1.1875 0.25 -2.125 0.25q-1.53125 0 -2.375 -0.484375q-0.84375 -0.484375 -1.1875 -1.265625q-0.34375 -0.796875 -0.34375 -3.328125l0 -9.546875l-2.0625 0l0 -2.1875l2.0625 0l0 -4.109375l2.796875 -1.6875l0 5.796875l2.828125 0l0 2.1875l-2.828125 0l0 9.703125q0 1.203125 0.140625 1.546875q0.15625 0.34375 0.484375 0.546875q0.34375 0.203125 0.96875 0.203125q0.46875 0 1.234375 -0.109375zm1.703125 -5.78125q0 -4.609375 2.5625 -6.828125q2.140625 -1.84375 5.21875 -1.84375q3.421875 0 5.59375 2.25q2.171875 2.234375 2.171875 6.1875q0 3.203125 -0.96875 5.046875q-0.953125 1.828125 -2.796875 2.84375q-1.828125 1.015625 -4.0 1.015625q-3.484375 0 -5.640625 -2.234375q-2.140625 -2.234375 -2.140625 -6.4375zm2.890625 0q0 3.1875 1.390625 4.78125q1.390625 1.578125 3.5 1.578125q2.09375 0 3.484375 -1.59375q1.390625 -1.59375 1.390625 -4.859375q0 -3.078125 -1.40625 -4.65625q-1.390625 -1.59375 -3.46875 -1.59375q-2.109375 0 -3.5 1.578125q-1.390625 1.578125 -1.390625 4.765625zm30.984375 5.78125l0.40625 2.484375q-1.1875 0.25 -2.125 0.25q-1.53125 0 -2.375 -0.484375q-0.84375 -0.484375 -1.1875 -1.265625q-0.34375 -0.796875 -0.34375 -3.328125l0 -9.546875l-2.0625 0l0 -2.1875l2.0625 0l0 -4.109375l2.796875 -1.6875l0 5.796875l2.828125 0l0 2.1875l-2.828125 0l0 9.703125q0 1.203125 0.140625 1.546875q0.15625 0.34375 0.484375 0.546875q0.34375 0.203125 0.96875 0.203125q0.46875 0 1.234375 -0.109375zm1.703125 -5.78125q0 -4.609375 2.5625 -6.828125q2.140625 -1.84375 5.21875 -1.84375q3.421875 0 5.59375 2.25q2.171875 2.234375 2.171875 6.1875q0 3.203125 -0.96875 5.046875q-0.953125 1.828125 -2.796875 2.84375q-1.828125 1.015625 -4.0 1.015625q-3.484375 0 -5.640625 -2.234375q-2.140625 -2.234375 -2.140625 -6.4375zm2.890625 0q0 3.1875 1.390625 4.78125q1.390625 1.578125 3.5 1.578125q2.09375 0 3.484375 -1.59375q1.390625 -1.59375 1.390625 -4.859375q0 -3.078125 -1.40625 -4.65625q-1.390625 -1.59375 -3.46875 -1.59375q-2.109375 0 -3.5 1.578125q-1.390625 1.578125 -1.390625 4.765625zm15.953125 14.65625l0 -22.953125l2.5625 0l0 2.15625q0.90625 -1.265625 2.046875 -1.890625q1.140625 -0.640625 2.765625 -0.640625q2.125 0 3.75 1.09375q1.625 1.09375 2.453125 3.09375q0.828125 1.984375 0.828125 4.359375q0 2.546875 -0.921875 4.59375q-0.90625 2.03125 -2.65625 3.125q-1.734375 1.078125 -3.65625 1.078125q-1.40625 0 -2.53125 -0.59375q-1.109375 -0.59375 -1.828125 -1.5l0 8.078125l-2.8125 0zm2.546875 -14.5625q0 3.203125 1.296875 4.734375q1.296875 1.53125 3.140625 1.53125q1.875 0 3.203125 -1.578125q1.34375 -1.59375 1.34375 -4.921875q0 -3.171875 -1.3125 -4.75q-1.296875 -1.578125 -3.109375 -1.578125q-1.796875 0 -3.1875 1.6875q-1.375 1.671875 -1.375 4.875z" fill-rule="nonzero"></path><path fill="#000000" d="m30.395834 794.0819q0 -4.609375 2.562498 -6.828125q2.140625 -1.84375 5.21875 -1.84375q3.421875 0 5.59375 2.25q2.171875 2.234375 2.171875 6.1875q0 3.203125 -0.96875 5.046875q-0.953125 1.828125 -2.796875 2.84375q-1.828125 1.015625 -4.0 1.015625q-3.484375 0 -5.640625 -2.234375q-2.140623 -2.234375 -2.140623 -6.4375zm2.890623 0q0 3.1875 1.390625 4.78125q1.390625 1.578125 3.5 1.578125q2.09375 0 3.484375 -1.59375q1.390625 -1.59375 1.390625 -4.859375q0 -3.078125 -1.40625 -4.65625q-1.390625 -1.59375 -3.46875 -1.59375q-2.109375 0 -3.5 1.578125q-1.390625 1.578125 -1.390625 4.765625zm16.625 8.296875l0 -14.40625l-2.484375 0l0 -2.1875l2.484375 0l0 -1.765625q0 -1.671875 0.296875 -2.484375q0.40625 -1.09375 1.421875 -1.765625q1.03125 -0.6875 2.875 -0.6875q1.1875 0 2.625 0.28125l-0.421875 2.453125q-0.875 -0.15625 -1.65625 -0.15625q-1.28125 0 -1.8125 0.546875q-0.53125 0.546875 -0.53125 2.046875l0 1.53125l3.234375 0l0 2.1875l-3.234375 0l0 14.40625l-2.796875 0zm23.250004 -2.515625l0.40625 2.484375q-1.1875 0.25 -2.125 0.25q-1.53125 0 -2.375 -0.484375q-0.84375 -0.484375 -1.1875 -1.265625q-0.34375 -0.796875 -0.34375 -3.328125l0 -9.546875l-2.0625 0l0 -2.1875l2.0625 0l0 -4.109375l2.796875 -1.6875l0 5.796875l2.828125 0l0 2.1875l-2.828125 0l0 9.703125q0 1.203125 0.140625 1.546875q0.15625 0.34375 0.484375 0.546875q0.34375 0.203125 0.96875 0.203125q0.46875 0 1.234375 -0.109375zm2.75 2.515625l0 -22.90625l2.8125 0l0 8.21875q1.96875 -2.28125 4.96875 -2.28125q1.84375 0 3.203125 0.734375q1.359375 0.71875 1.9375 2.0q0.59375 1.28125 0.59375 3.71875l0 10.515625l-2.8125 0l0 -10.515625q0 -2.109375 -0.921875 -3.0625q-0.90625 -0.96875 -2.578125 -0.96875q-1.25 0 -2.359375 0.65625q-1.09375 0.640625 -1.5625 1.75q-0.46875 1.109375 -0.46875 3.0625l0 9.078125l-2.8125 0zm29.15625 -5.34375l2.90625 0.359375q-0.6875 2.546875 -2.546875 3.953125q-1.859375 1.40625 -4.75 1.40625q-3.640625 0 -5.78125 -2.234375q-2.125 -2.25 -2.125 -6.296875q0 -4.1875 2.15625 -6.5q2.15625 -2.3125 5.59375 -2.3125q3.328125 0 5.4375 2.265625q2.109375 2.265625 2.109375 6.375q0 0.25 -0.015625 0.75l-12.375 0q0.15625 2.734375 1.546875 4.1875q1.390625 1.453125 3.46875 1.453125q1.546875 0 2.640625 -0.8125q1.09375 -0.8125 1.734375 -2.59375zm-9.234375 -4.546875l9.265625 0q-0.1875 -2.09375 -1.0625 -3.140625q-1.34375 -1.625 -3.484375 -1.625q-1.9375 0 -3.265625 1.296875q-1.3125 1.296875 -1.453125 3.46875zm24.5 9.890625l0 -22.90625l2.8125 0l0 22.90625l-2.8125 0zm7.1875 -19.671875l0 -3.234375l2.8124924 0l0 3.234375l-2.8124924 0zm0 19.671875l0 -16.59375l2.8124924 0l0 16.59375l-2.8124924 0zm5.9687424 -4.953125l2.78125 -0.4375q0.234375 1.671875 1.296875 2.5625q1.078125 0.890625 3.0 0.890625q1.9375 0 2.875 -0.78125q0.9375 -0.796875 0.9375 -1.859375q0 -0.953125 -0.828125 -1.5q-0.578125 -0.375 -2.875 -0.953125q-3.09375 -0.78125 -4.296875 -1.34375q-1.1875 -0.578125 -1.8125 -1.578125q-0.609375 -1.015625 -0.609375 -2.234375q0 -1.109375 0.5 -2.046875q0.515625 -0.953125 1.390625 -1.578125q0.65625 -0.484375 1.78125 -0.8125q1.140625 -0.34375 2.4375 -0.34375q1.953125 0 3.421875 0.5625q1.484375 0.5625 2.1875 1.53125q0.703125 0.953125 0.96875 2.5625l-2.75 0.375q-0.1875 -1.28125 -1.09375 -2.0q-0.890625 -0.71875 -2.53125 -0.71875q-1.9375 0 -2.765625 0.640625q-0.828125 0.640625 -0.828125 1.5q0 0.546875 0.34375 0.984375q0.34375 0.453125 1.078125 0.75q0.421875 0.15625 2.484375 0.71875q2.984375 0.796875 4.15625 1.3125q1.1875 0.5 1.859375 1.46875q0.671875 0.96875 0.671875 2.40625q0 1.40625 -0.828125 2.65625q-0.8125 1.234375 -2.359375 1.921875q-1.546875 0.671875 -3.5 0.671875q-3.234375 0 -4.9375 -1.34375q-1.6875 -1.34375 -2.15625 -3.984375zm23.265625 2.4375l0.40625 2.484375q-1.1875 0.25 -2.125 0.25q-1.53125 0 -2.375 -0.484375q-0.84375 -0.484375 -1.1875 -1.265625q-0.34375 -0.796875 -0.34375 -3.328125l0 -9.546875l-2.0625 0l0 -2.1875l2.0625 0l0 -4.109375l2.796875 -1.6875l0 5.796875l2.828125 0l0 2.1875l-2.828125 0l0 9.703125q0 1.203125 0.140625 1.546875q0.15625 0.34375 0.484375 0.546875q0.34375 0.203125 0.96875 0.203125q0.46875 0 1.234375 -0.109375z" fill-rule="nonzero"></path></g></svg>

