<?xml version="1.0" encoding="UTF-8"?>
<svg xmlns="http://www.w3.org/2000/svg" xmlns:xlink="http://www.w3.org/1999/xlink" width="504pt" height="504pt" viewBox="0 0 504 504" version="1.1">
<defs>
<clipPath id="clip1">
  <path d="M 67.679688 8.640625 L 496.359375 8.640625 L 496.359375 437.320312 L 67.679688 437.320312 Z M 67.679688 8.640625 "/>
</clipPath>
</defs>
<g id="surface64">
<rect x="0" y="0" width="504" height="504" style="fill:rgb(100%,100%,100%);fill-opacity:1;stroke:none;"/>
<g clip-path="url(#clip1)" clip-rule="nonzero">
<path style="fill-rule:nonzero;fill:rgb(20%,20%,90.196078%);fill-opacity:0.701961;stroke-width:0.75;stroke-linecap:round;stroke-linejoin:round;stroke:rgb(20%,20%,90.196078%);stroke-opacity:0.701961;stroke-miterlimit:10;" d="M 88.921875 62.59375 C 88.921875 69.792969 78.121094 69.792969 78.121094 62.59375 C 78.121094 55.394531 88.921875 55.394531 88.921875 62.59375 "/>
<path style="fill-rule:nonzero;fill:rgb(20%,20%,90.196078%);fill-opacity:0.701961;stroke-width:0.75;stroke-linecap:round;stroke-linejoin:round;stroke:rgb(20%,20%,90.196078%);stroke-opacity:0.701961;stroke-miterlimit:10;" d="M 93.871094 24.480469 C 93.871094 31.679688 83.070312 31.679688 83.070312 24.480469 C 83.070312 17.28125 93.871094 17.28125 93.871094 24.480469 "/>
<path style="fill-rule:nonzero;fill:rgb(20%,20%,90.196078%);fill-opacity:0.701961;stroke-width:0.75;stroke-linecap:round;stroke-linejoin:round;stroke:rgb(20%,20%,90.196078%);stroke-opacity:0.701961;stroke-miterlimit:10;" d="M 98.820312 134.820312 C 98.820312 142.019531 88.019531 142.019531 88.019531 134.820312 C 88.019531 127.621094 98.820312 127.621094 98.820312 134.820312 "/>
<path style="fill-rule:nonzero;fill:rgb(20%,20%,90.196078%);fill-opacity:0.701961;stroke-width:0.75;stroke-linecap:round;stroke-linejoin:round;stroke:rgb(20%,20%,90.196078%);stroke-opacity:0.701961;stroke-miterlimit:10;" d="M 103.769531 169.148438 C 103.769531 176.347656 92.96875 176.347656 92.96875 169.148438 C 92.96875 161.945312 103.769531 161.945312 103.769531 169.148438 "/>
<path style="fill-rule:nonzero;fill:rgb(20%,20%,90.196078%);fill-opacity:0.701961;stroke-width:0.75;stroke-linecap:round;stroke-linejoin:round;stroke:rgb(20%,20%,90.196078%);stroke-opacity:0.701961;stroke-miterlimit:10;" d="M 108.71875 122.042969 C 108.71875 129.242188 97.921875 129.242188 97.921875 122.042969 C 97.921875 114.84375 108.71875 114.84375 108.71875 122.042969 "/>
<path style="fill-rule:nonzero;fill:rgb(20%,20%,90.196078%);fill-opacity:0.701961;stroke-width:0.75;stroke-linecap:round;stroke-linejoin:round;stroke:rgb(20%,20%,90.196078%);stroke-opacity:0.701961;stroke-miterlimit:10;" d="M 113.671875 178.710938 C 113.671875 185.910156 102.871094 185.910156 102.871094 178.710938 C 102.871094 171.507812 113.671875 171.507812 113.671875 178.710938 "/>
<path style="fill-rule:nonzero;fill:rgb(20%,20%,90.196078%);fill-opacity:0.701961;stroke-width:0.75;stroke-linecap:round;stroke-linejoin:round;stroke:rgb(20%,20%,90.196078%);stroke-opacity:0.701961;stroke-miterlimit:10;" d="M 118.621094 147.429688 C 118.621094 154.628906 107.820312 154.628906 107.820312 147.429688 C 107.820312 140.226562 118.621094 140.226562 118.621094 147.429688 "/>
<path style="fill-rule:nonzero;fill:rgb(20%,20%,90.196078%);fill-opacity:0.701961;stroke-width:0.75;stroke-linecap:round;stroke-linejoin:round;stroke:rgb(20%,20%,90.196078%);stroke-opacity:0.701961;stroke-miterlimit:10;" d="M 123.570312 202.8125 C 123.570312 210.015625 112.769531 210.015625 112.769531 202.8125 C 112.769531 195.613281 123.570312 195.613281 123.570312 202.8125 "/>
<path style="fill-rule:nonzero;fill:rgb(20%,20%,90.196078%);fill-opacity:0.701961;stroke-width:0.75;stroke-linecap:round;stroke-linejoin:round;stroke:rgb(20%,20%,90.196078%);stroke-opacity:0.701961;stroke-miterlimit:10;" d="M 128.519531 127.976562 C 128.519531 135.175781 117.71875 135.175781 117.71875 127.976562 C 117.71875 120.777344 128.519531 120.777344 128.519531 127.976562 "/>
<path style="fill-rule:nonzero;fill:rgb(20%,20%,90.196078%);fill-opacity:0.701961;stroke-width:0.75;stroke-linecap:round;stroke-linejoin:round;stroke:rgb(20%,20%,90.196078%);stroke-opacity:0.701961;stroke-miterlimit:10;" d="M 133.46875 165.023438 C 133.46875 172.226562 122.671875 172.226562 122.671875 165.023438 C 122.671875 157.824219 133.46875 157.824219 133.46875 165.023438 "/>
<path style="fill-rule:nonzero;fill:rgb(20%,20%,90.196078%);fill-opacity:0.701961;stroke-width:0.75;stroke-linecap:round;stroke-linejoin:round;stroke:rgb(20%,20%,90.196078%);stroke-opacity:0.701961;stroke-miterlimit:10;" d="M 138.421875 115.785156 C 138.421875 122.984375 127.621094 122.984375 127.621094 115.785156 C 127.621094 108.585938 138.421875 108.585938 138.421875 115.785156 "/>
<path style="fill-rule:nonzero;fill:rgb(20%,20%,90.196078%);fill-opacity:0.701961;stroke-width:0.75;stroke-linecap:round;stroke-linejoin:round;stroke:rgb(20%,20%,90.196078%);stroke-opacity:0.701961;stroke-miterlimit:10;" d="M 143.371094 148.824219 C 143.371094 156.023438 132.570312 156.023438 132.570312 148.824219 C 132.570312 141.621094 143.371094 141.621094 143.371094 148.824219 "/>
<path style="fill-rule:nonzero;fill:rgb(20%,20%,90.196078%);fill-opacity:0.701961;stroke-width:0.75;stroke-linecap:round;stroke-linejoin:round;stroke:rgb(20%,20%,90.196078%);stroke-opacity:0.701961;stroke-miterlimit:10;" d="M 148.320312 133.628906 C 148.320312 140.832031 137.519531 140.832031 137.519531 133.628906 C 137.519531 126.429688 148.320312 126.429688 148.320312 133.628906 "/>
<path style="fill-rule:nonzero;fill:rgb(20%,20%,90.196078%);fill-opacity:0.701961;stroke-width:0.75;stroke-linecap:round;stroke-linejoin:round;stroke:rgb(20%,20%,90.196078%);stroke-opacity:0.701961;stroke-miterlimit:10;" d="M 153.269531 149.296875 C 153.269531 156.496094 142.46875 156.496094 142.46875 149.296875 C 142.46875 142.097656 153.269531 142.097656 153.269531 149.296875 "/>
<path style="fill-rule:nonzero;fill:rgb(20%,20%,90.196078%);fill-opacity:0.701961;stroke-width:0.75;stroke-linecap:round;stroke-linejoin:round;stroke:rgb(20%,20%,90.196078%);stroke-opacity:0.701961;stroke-miterlimit:10;" d="M 158.21875 194.34375 C 158.21875 201.542969 147.421875 201.542969 147.421875 194.34375 C 147.421875 187.144531 158.21875 187.144531 158.21875 194.34375 "/>
<path style="fill-rule:nonzero;fill:rgb(20%,20%,90.196078%);fill-opacity:0.701961;stroke-width:0.75;stroke-linecap:round;stroke-linejoin:round;stroke:rgb(20%,20%,90.196078%);stroke-opacity:0.701961;stroke-miterlimit:10;" d="M 163.171875 184.917969 C 163.171875 192.121094 152.371094 192.121094 152.371094 184.917969 C 152.371094 177.71875 163.171875 177.71875 163.171875 184.917969 "/>
<path style="fill-rule:nonzero;fill:rgb(20%,20%,90.196078%);fill-opacity:0.701961;stroke-width:0.75;stroke-linecap:round;stroke-linejoin:round;stroke:rgb(20%,20%,90.196078%);stroke-opacity:0.701961;stroke-miterlimit:10;" d="M 168.121094 238.050781 C 168.121094 245.25 157.320312 245.25 157.320312 238.050781 C 157.320312 230.851562 168.121094 230.851562 168.121094 238.050781 "/>
<path style="fill-rule:nonzero;fill:rgb(20%,20%,90.196078%);fill-opacity:0.701961;stroke-width:0.75;stroke-linecap:round;stroke-linejoin:round;stroke:rgb(20%,20%,90.196078%);stroke-opacity:0.701961;stroke-miterlimit:10;" d="M 173.070312 280.261719 C 173.070312 287.460938 162.269531 287.460938 162.269531 280.261719 C 162.269531 273.0625 173.070312 273.0625 173.070312 280.261719 "/>
<path style="fill-rule:nonzero;fill:rgb(20%,20%,90.196078%);fill-opacity:0.701961;stroke-width:0.75;stroke-linecap:round;stroke-linejoin:round;stroke:rgb(20%,20%,90.196078%);stroke-opacity:0.701961;stroke-miterlimit:10;" d="M 178.019531 260.441406 C 178.019531 267.644531 167.21875 267.644531 167.21875 260.441406 C 167.21875 253.242188 178.019531 253.242188 178.019531 260.441406 "/>
<path style="fill-rule:nonzero;fill:rgb(20%,20%,90.196078%);fill-opacity:0.701961;stroke-width:0.75;stroke-linecap:round;stroke-linejoin:round;stroke:rgb(20%,20%,90.196078%);stroke-opacity:0.701961;stroke-miterlimit:10;" d="M 182.96875 301.539062 C 182.96875 308.738281 172.171875 308.738281 172.171875 301.539062 C 172.171875 294.339844 182.96875 294.339844 182.96875 301.539062 "/>
<path style="fill-rule:nonzero;fill:rgb(20%,20%,90.196078%);fill-opacity:0.701961;stroke-width:0.75;stroke-linecap:round;stroke-linejoin:round;stroke:rgb(20%,20%,90.196078%);stroke-opacity:0.701961;stroke-miterlimit:10;" d="M 187.921875 299.421875 C 187.921875 306.621094 177.121094 306.621094 177.121094 299.421875 C 177.121094 292.222656 187.921875 292.222656 187.921875 299.421875 "/>
<path style="fill-rule:nonzero;fill:rgb(20%,20%,90.196078%);fill-opacity:0.701961;stroke-width:0.75;stroke-linecap:round;stroke-linejoin:round;stroke:rgb(20%,20%,90.196078%);stroke-opacity:0.701961;stroke-miterlimit:10;" d="M 192.871094 276.875 C 192.871094 284.074219 182.070312 284.074219 182.070312 276.875 C 182.070312 269.675781 192.871094 269.675781 192.871094 276.875 "/>
<path style="fill-rule:nonzero;fill:rgb(20%,20%,90.196078%);fill-opacity:0.701961;stroke-width:0.75;stroke-linecap:round;stroke-linejoin:round;stroke:rgb(20%,20%,90.196078%);stroke-opacity:0.701961;stroke-miterlimit:10;" d="M 197.820312 251.402344 C 197.820312 258.601562 187.019531 258.601562 187.019531 251.402344 C 187.019531 244.203125 197.820312 244.203125 197.820312 251.402344 "/>
<path style="fill-rule:nonzero;fill:rgb(20%,20%,90.196078%);fill-opacity:0.701961;stroke-width:0.75;stroke-linecap:round;stroke-linejoin:round;stroke:rgb(20%,20%,90.196078%);stroke-opacity:0.701961;stroke-miterlimit:10;" d="M 202.769531 273.59375 C 202.769531 280.792969 191.96875 280.792969 191.96875 273.59375 C 191.96875 266.390625 202.769531 266.390625 202.769531 273.59375 "/>
<path style="fill-rule:nonzero;fill:rgb(20%,20%,90.196078%);fill-opacity:0.701961;stroke-width:0.75;stroke-linecap:round;stroke-linejoin:round;stroke:rgb(20%,20%,90.196078%);stroke-opacity:0.701961;stroke-miterlimit:10;" d="M 207.71875 235.453125 C 207.71875 242.652344 196.921875 242.652344 196.921875 235.453125 C 196.921875 228.253906 207.71875 228.253906 207.71875 235.453125 "/>
<path style="fill-rule:nonzero;fill:rgb(20%,20%,90.196078%);fill-opacity:0.701961;stroke-width:0.75;stroke-linecap:round;stroke-linejoin:round;stroke:rgb(20%,20%,90.196078%);stroke-opacity:0.701961;stroke-miterlimit:10;" d="M 212.671875 235.832031 C 212.671875 243.03125 201.871094 243.03125 201.871094 235.832031 C 201.871094 228.632812 212.671875 228.632812 212.671875 235.832031 "/>
<path style="fill-rule:nonzero;fill:rgb(20%,20%,90.196078%);fill-opacity:0.701961;stroke-width:0.75;stroke-linecap:round;stroke-linejoin:round;stroke:rgb(20%,20%,90.196078%);stroke-opacity:0.701961;stroke-miterlimit:10;" d="M 217.621094 245.097656 C 217.621094 252.296875 206.820312 252.296875 206.820312 245.097656 C 206.820312 237.898438 217.621094 237.898438 217.621094 245.097656 "/>
<path style="fill-rule:nonzero;fill:rgb(20%,20%,90.196078%);fill-opacity:0.701961;stroke-width:0.75;stroke-linecap:round;stroke-linejoin:round;stroke:rgb(20%,20%,90.196078%);stroke-opacity:0.701961;stroke-miterlimit:10;" d="M 222.570312 250.363281 C 222.570312 257.5625 211.769531 257.5625 211.769531 250.363281 C 211.769531 243.164062 222.570312 243.164062 222.570312 250.363281 "/>
<path style="fill-rule:nonzero;fill:rgb(20%,20%,90.196078%);fill-opacity:0.701961;stroke-width:0.75;stroke-linecap:round;stroke-linejoin:round;stroke:rgb(20%,20%,90.196078%);stroke-opacity:0.701961;stroke-miterlimit:10;" d="M 227.519531 232.738281 C 227.519531 239.9375 216.71875 239.9375 216.71875 232.738281 C 216.71875 225.539062 227.519531 225.539062 227.519531 232.738281 "/>
<path style="fill-rule:nonzero;fill:rgb(20%,20%,90.196078%);fill-opacity:0.701961;stroke-width:0.75;stroke-linecap:round;stroke-linejoin:round;stroke:rgb(20%,20%,90.196078%);stroke-opacity:0.701961;stroke-miterlimit:10;" d="M 232.46875 290.722656 C 232.46875 297.925781 221.671875 297.925781 221.671875 290.722656 C 221.671875 283.523438 232.46875 283.523438 232.46875 290.722656 "/>
<path style="fill-rule:nonzero;fill:rgb(20%,20%,90.196078%);fill-opacity:0.701961;stroke-width:0.75;stroke-linecap:round;stroke-linejoin:round;stroke:rgb(20%,20%,90.196078%);stroke-opacity:0.701961;stroke-miterlimit:10;" d="M 237.421875 309.410156 C 237.421875 316.609375 226.621094 316.609375 226.621094 309.410156 C 226.621094 302.210938 237.421875 302.210938 237.421875 309.410156 "/>
<path style="fill-rule:nonzero;fill:rgb(20%,20%,90.196078%);fill-opacity:0.701961;stroke-width:0.75;stroke-linecap:round;stroke-linejoin:round;stroke:rgb(20%,20%,90.196078%);stroke-opacity:0.701961;stroke-miterlimit:10;" d="M 242.371094 331.425781 C 242.371094 338.625 231.570312 338.625 231.570312 331.425781 C 231.570312 324.226562 242.371094 324.226562 242.371094 331.425781 "/>
<path style="fill-rule:nonzero;fill:rgb(20%,20%,90.196078%);fill-opacity:0.701961;stroke-width:0.75;stroke-linecap:round;stroke-linejoin:round;stroke:rgb(20%,20%,90.196078%);stroke-opacity:0.701961;stroke-miterlimit:10;" d="M 247.320312 323.691406 C 247.320312 330.890625 236.519531 330.890625 236.519531 323.691406 C 236.519531 316.488281 247.320312 316.488281 247.320312 323.691406 "/>
<path style="fill-rule:nonzero;fill:rgb(20%,20%,90.196078%);fill-opacity:0.701961;stroke-width:0.75;stroke-linecap:round;stroke-linejoin:round;stroke:rgb(20%,20%,90.196078%);stroke-opacity:0.701961;stroke-miterlimit:10;" d="M 252.269531 314.507812 C 252.269531 321.707031 241.46875 321.707031 241.46875 314.507812 C 241.46875 307.308594 252.269531 307.308594 252.269531 314.507812 "/>
<path style="fill-rule:nonzero;fill:rgb(20%,20%,90.196078%);fill-opacity:0.701961;stroke-width:0.75;stroke-linecap:round;stroke-linejoin:round;stroke:rgb(20%,20%,90.196078%);stroke-opacity:0.701961;stroke-miterlimit:10;" d="M 257.21875 391.050781 C 257.21875 398.25 246.421875 398.25 246.421875 391.050781 C 246.421875 383.851562 257.21875 383.851562 257.21875 391.050781 "/>
<path style="fill-rule:nonzero;fill:rgb(20%,20%,90.196078%);fill-opacity:0.701961;stroke-width:0.75;stroke-linecap:round;stroke-linejoin:round;stroke:rgb(20%,20%,90.196078%);stroke-opacity:0.701961;stroke-miterlimit:10;" d="M 262.171875 331.84375 C 262.171875 339.046875 251.371094 339.046875 251.371094 331.84375 C 251.371094 324.644531 262.171875 324.644531 262.171875 331.84375 "/>
<path style="fill-rule:nonzero;fill:rgb(20%,20%,90.196078%);fill-opacity:0.701961;stroke-width:0.75;stroke-linecap:round;stroke-linejoin:round;stroke:rgb(20%,20%,90.196078%);stroke-opacity:0.701961;stroke-miterlimit:10;" d="M 267.121094 335.386719 C 267.121094 342.585938 256.320312 342.585938 256.320312 335.386719 C 256.320312 328.1875 267.121094 328.1875 267.121094 335.386719 "/>
<path style="fill-rule:nonzero;fill:rgb(20%,20%,90.196078%);fill-opacity:0.701961;stroke-width:0.75;stroke-linecap:round;stroke-linejoin:round;stroke:rgb(20%,20%,90.196078%);stroke-opacity:0.701961;stroke-miterlimit:10;" d="M 272.070312 339.867188 C 272.070312 347.066406 261.269531 347.066406 261.269531 339.867188 C 261.269531 332.667969 272.070312 332.667969 272.070312 339.867188 "/>
<path style="fill-rule:nonzero;fill:rgb(20%,20%,90.196078%);fill-opacity:0.701961;stroke-width:0.75;stroke-linecap:round;stroke-linejoin:round;stroke:rgb(20%,20%,90.196078%);stroke-opacity:0.701961;stroke-miterlimit:10;" d="M 277.019531 391.132812 C 277.019531 398.332031 266.21875 398.332031 266.21875 391.132812 C 266.21875 383.933594 277.019531 383.933594 277.019531 391.132812 "/>
<path style="fill-rule:nonzero;fill:rgb(20%,20%,90.196078%);fill-opacity:0.701961;stroke-width:0.75;stroke-linecap:round;stroke-linejoin:round;stroke:rgb(20%,20%,90.196078%);stroke-opacity:0.701961;stroke-miterlimit:10;" d="M 281.96875 382.390625 C 281.96875 389.589844 271.171875 389.589844 271.171875 382.390625 C 271.171875 375.191406 281.96875 375.191406 281.96875 382.390625 "/>
<path style="fill-rule:nonzero;fill:rgb(20%,20%,90.196078%);fill-opacity:0.701961;stroke-width:0.75;stroke-linecap:round;stroke-linejoin:round;stroke:rgb(20%,20%,90.196078%);stroke-opacity:0.701961;stroke-miterlimit:10;" d="M 286.921875 305.546875 C 286.921875 312.746094 276.121094 312.746094 276.121094 305.546875 C 276.121094 298.347656 286.921875 298.347656 286.921875 305.546875 "/>
<path style="fill-rule:nonzero;fill:rgb(20%,20%,90.196078%);fill-opacity:0.701961;stroke-width:0.75;stroke-linecap:round;stroke-linejoin:round;stroke:rgb(20%,20%,90.196078%);stroke-opacity:0.701961;stroke-miterlimit:10;" d="M 291.871094 288.441406 C 291.871094 295.640625 281.070312 295.640625 281.070312 288.441406 C 281.070312 281.242188 291.871094 281.242188 291.871094 288.441406 "/>
<path style="fill-rule:nonzero;fill:rgb(20%,20%,90.196078%);fill-opacity:0.701961;stroke-width:0.75;stroke-linecap:round;stroke-linejoin:round;stroke:rgb(20%,20%,90.196078%);stroke-opacity:0.701961;stroke-miterlimit:10;" d="M 296.820312 305.960938 C 296.820312 313.160156 286.019531 313.160156 286.019531 305.960938 C 286.019531 298.757812 296.820312 298.757812 296.820312 305.960938 "/>
<path style="fill-rule:nonzero;fill:rgb(20%,20%,90.196078%);fill-opacity:0.701961;stroke-width:0.75;stroke-linecap:round;stroke-linejoin:round;stroke:rgb(20%,20%,90.196078%);stroke-opacity:0.701961;stroke-miterlimit:10;" d="M 301.769531 274.097656 C 301.769531 281.296875 290.96875 281.296875 290.96875 274.097656 C 290.96875 266.898438 301.769531 266.898438 301.769531 274.097656 "/>
<path style="fill-rule:nonzero;fill:rgb(20%,20%,90.196078%);fill-opacity:0.701961;stroke-width:0.75;stroke-linecap:round;stroke-linejoin:round;stroke:rgb(20%,20%,90.196078%);stroke-opacity:0.701961;stroke-miterlimit:10;" d="M 306.71875 312.832031 C 306.71875 320.035156 295.921875 320.035156 295.921875 312.832031 C 295.921875 305.632812 306.71875 305.632812 306.71875 312.832031 "/>
<path style="fill-rule:nonzero;fill:rgb(20%,20%,90.196078%);fill-opacity:0.701961;stroke-width:0.75;stroke-linecap:round;stroke-linejoin:round;stroke:rgb(20%,20%,90.196078%);stroke-opacity:0.701961;stroke-miterlimit:10;" d="M 311.671875 287.257812 C 311.671875 294.457031 300.871094 294.457031 300.871094 287.257812 C 300.871094 280.058594 311.671875 280.058594 311.671875 287.257812 "/>
<path style="fill-rule:nonzero;fill:rgb(20%,20%,90.196078%);fill-opacity:0.701961;stroke-width:0.75;stroke-linecap:round;stroke-linejoin:round;stroke:rgb(20%,20%,90.196078%);stroke-opacity:0.701961;stroke-miterlimit:10;" d="M 316.621094 279.109375 C 316.621094 286.308594 305.820312 286.308594 305.820312 279.109375 C 305.820312 271.910156 316.621094 271.910156 316.621094 279.109375 "/>
<path style="fill-rule:nonzero;fill:rgb(20%,20%,90.196078%);fill-opacity:0.701961;stroke-width:0.75;stroke-linecap:round;stroke-linejoin:round;stroke:rgb(20%,20%,90.196078%);stroke-opacity:0.701961;stroke-miterlimit:10;" d="M 321.570312 363.316406 C 321.570312 370.515625 310.769531 370.515625 310.769531 363.316406 C 310.769531 356.117188 321.570312 356.117188 321.570312 363.316406 "/>
<path style="fill-rule:nonzero;fill:rgb(20%,20%,90.196078%);fill-opacity:0.701961;stroke-width:0.75;stroke-linecap:round;stroke-linejoin:round;stroke:rgb(20%,20%,90.196078%);stroke-opacity:0.701961;stroke-miterlimit:10;" d="M 326.519531 374.945312 C 326.519531 382.144531 315.71875 382.144531 315.71875 374.945312 C 315.71875 367.746094 326.519531 367.746094 326.519531 374.945312 "/>
<path style="fill-rule:nonzero;fill:rgb(20%,20%,90.196078%);fill-opacity:0.701961;stroke-width:0.75;stroke-linecap:round;stroke-linejoin:round;stroke:rgb(20%,20%,90.196078%);stroke-opacity:0.701961;stroke-miterlimit:10;" d="M 331.46875 385.097656 C 331.46875 392.296875 320.671875 392.296875 320.671875 385.097656 C 320.671875 377.898438 331.46875 377.898438 331.46875 385.097656 "/>
<path style="fill-rule:nonzero;fill:rgb(20%,20%,90.196078%);fill-opacity:0.701961;stroke-width:0.75;stroke-linecap:round;stroke-linejoin:round;stroke:rgb(20%,20%,90.196078%);stroke-opacity:0.701961;stroke-miterlimit:10;" d="M 336.421875 420.480469 C 336.421875 427.679688 325.621094 427.679688 325.621094 420.480469 C 325.621094 413.28125 336.421875 413.28125 336.421875 420.480469 "/>
<path style="fill-rule:nonzero;fill:rgb(20%,20%,90.196078%);fill-opacity:0.701961;stroke-width:0.75;stroke-linecap:round;stroke-linejoin:round;stroke:rgb(20%,20%,90.196078%);stroke-opacity:0.701961;stroke-miterlimit:10;" d="M 341.371094 366.867188 C 341.371094 374.066406 330.570312 374.066406 330.570312 366.867188 C 330.570312 359.664062 341.371094 359.664062 341.371094 366.867188 "/>
<path style="fill-rule:nonzero;fill:rgb(20%,20%,90.196078%);fill-opacity:0.701961;stroke-width:0.75;stroke-linecap:round;stroke-linejoin:round;stroke:rgb(20%,20%,90.196078%);stroke-opacity:0.701961;stroke-miterlimit:10;" d="M 346.320312 414.699219 C 346.320312 421.898438 335.519531 421.898438 335.519531 414.699219 C 335.519531 407.5 346.320312 407.5 346.320312 414.699219 "/>
<path style="fill-rule:nonzero;fill:rgb(20%,20%,90.196078%);fill-opacity:0.701961;stroke-width:0.75;stroke-linecap:round;stroke-linejoin:round;stroke:rgb(20%,20%,90.196078%);stroke-opacity:0.701961;stroke-miterlimit:10;" d="M 351.269531 376.414062 C 351.269531 383.613281 340.46875 383.613281 340.46875 376.414062 C 340.46875 369.214844 351.269531 369.214844 351.269531 376.414062 "/>
<path style="fill-rule:nonzero;fill:rgb(20%,20%,90.196078%);fill-opacity:0.701961;stroke-width:0.75;stroke-linecap:round;stroke-linejoin:round;stroke:rgb(20%,20%,90.196078%);stroke-opacity:0.701961;stroke-miterlimit:10;" d="M 356.21875 375.027344 C 356.21875 382.230469 345.421875 382.230469 345.421875 375.027344 C 345.421875 367.828125 356.21875 367.828125 356.21875 375.027344 "/>
<path style="fill-rule:nonzero;fill:rgb(20%,20%,90.196078%);fill-opacity:0.701961;stroke-width:0.75;stroke-linecap:round;stroke-linejoin:round;stroke:rgb(20%,20%,90.196078%);stroke-opacity:0.701961;stroke-miterlimit:10;" d="M 361.171875 369.238281 C 361.171875 376.4375 350.371094 376.4375 350.371094 369.238281 C 350.371094 362.039062 361.171875 362.039062 361.171875 369.238281 "/>
<path style="fill-rule:nonzero;fill:rgb(20%,20%,90.196078%);fill-opacity:0.701961;stroke-width:0.75;stroke-linecap:round;stroke-linejoin:round;stroke:rgb(20%,20%,90.196078%);stroke-opacity:0.701961;stroke-miterlimit:10;" d="M 366.121094 359.503906 C 366.121094 366.703125 355.320312 366.703125 355.320312 359.503906 C 355.320312 352.304688 366.121094 352.304688 366.121094 359.503906 "/>
<path style="fill-rule:nonzero;fill:rgb(20%,20%,90.196078%);fill-opacity:0.701961;stroke-width:0.75;stroke-linecap:round;stroke-linejoin:round;stroke:rgb(20%,20%,90.196078%);stroke-opacity:0.701961;stroke-miterlimit:10;" d="M 371.070312 342.296875 C 371.070312 349.5 360.269531 349.5 360.269531 342.296875 C 360.269531 335.097656 371.070312 335.097656 371.070312 342.296875 "/>
<path style="fill-rule:nonzero;fill:rgb(20%,20%,90.196078%);fill-opacity:0.701961;stroke-width:0.75;stroke-linecap:round;stroke-linejoin:round;stroke:rgb(20%,20%,90.196078%);stroke-opacity:0.701961;stroke-miterlimit:10;" d="M 376.019531 262.261719 C 376.019531 269.460938 365.21875 269.460938 365.21875 262.261719 C 365.21875 255.0625 376.019531 255.0625 376.019531 262.261719 "/>
<path style="fill-rule:nonzero;fill:rgb(20%,20%,90.196078%);fill-opacity:0.701961;stroke-width:0.75;stroke-linecap:round;stroke-linejoin:round;stroke:rgb(20%,20%,90.196078%);stroke-opacity:0.701961;stroke-miterlimit:10;" d="M 380.96875 255.152344 C 380.96875 262.351562 370.171875 262.351562 370.171875 255.152344 C 370.171875 247.953125 380.96875 247.953125 380.96875 255.152344 "/>
<path style="fill-rule:nonzero;fill:rgb(20%,20%,90.196078%);fill-opacity:0.701961;stroke-width:0.75;stroke-linecap:round;stroke-linejoin:round;stroke:rgb(20%,20%,90.196078%);stroke-opacity:0.701961;stroke-miterlimit:10;" d="M 385.921875 258.964844 C 385.921875 266.164062 375.121094 266.164062 375.121094 258.964844 C 375.121094 251.765625 385.921875 251.765625 385.921875 258.964844 "/>
<path style="fill-rule:nonzero;fill:rgb(20%,20%,90.196078%);fill-opacity:0.701961;stroke-width:0.75;stroke-linecap:round;stroke-linejoin:round;stroke:rgb(20%,20%,90.196078%);stroke-opacity:0.701961;stroke-miterlimit:10;" d="M 390.871094 317.691406 C 390.871094 324.890625 380.070312 324.890625 380.070312 317.691406 C 380.070312 310.488281 390.871094 310.488281 390.871094 317.691406 "/>
<path style="fill-rule:nonzero;fill:rgb(20%,20%,90.196078%);fill-opacity:0.701961;stroke-width:0.75;stroke-linecap:round;stroke-linejoin:round;stroke:rgb(20%,20%,90.196078%);stroke-opacity:0.701961;stroke-miterlimit:10;" d="M 395.820312 306.726562 C 395.820312 313.925781 385.019531 313.925781 385.019531 306.726562 C 385.019531 299.527344 395.820312 299.527344 395.820312 306.726562 "/>
<path style="fill-rule:nonzero;fill:rgb(20%,20%,90.196078%);fill-opacity:0.701961;stroke-width:0.75;stroke-linecap:round;stroke-linejoin:round;stroke:rgb(20%,20%,90.196078%);stroke-opacity:0.701961;stroke-miterlimit:10;" d="M 400.769531 313.09375 C 400.769531 320.292969 389.96875 320.292969 389.96875 313.09375 C 389.96875 305.894531 400.769531 305.894531 400.769531 313.09375 "/>
<path style="fill-rule:nonzero;fill:rgb(20%,20%,90.196078%);fill-opacity:0.701961;stroke-width:0.75;stroke-linecap:round;stroke-linejoin:round;stroke:rgb(20%,20%,90.196078%);stroke-opacity:0.701961;stroke-miterlimit:10;" d="M 405.71875 340.734375 C 405.71875 347.933594 394.921875 347.933594 394.921875 340.734375 C 394.921875 333.535156 405.71875 333.535156 405.71875 340.734375 "/>
<path style="fill-rule:nonzero;fill:rgb(20%,20%,90.196078%);fill-opacity:0.701961;stroke-width:0.75;stroke-linecap:round;stroke-linejoin:round;stroke:rgb(20%,20%,90.196078%);stroke-opacity:0.701961;stroke-miterlimit:10;" d="M 410.671875 373.898438 C 410.671875 381.097656 399.871094 381.097656 399.871094 373.898438 C 399.871094 366.699219 410.671875 366.699219 410.671875 373.898438 "/>
<path style="fill-rule:nonzero;fill:rgb(20%,20%,90.196078%);fill-opacity:0.701961;stroke-width:0.75;stroke-linecap:round;stroke-linejoin:round;stroke:rgb(20%,20%,90.196078%);stroke-opacity:0.701961;stroke-miterlimit:10;" d="M 415.621094 323.65625 C 415.621094 330.855469 404.820312 330.855469 404.820312 323.65625 C 404.820312 316.457031 415.621094 316.457031 415.621094 323.65625 "/>
<path style="fill-rule:nonzero;fill:rgb(20%,20%,90.196078%);fill-opacity:0.701961;stroke-width:0.75;stroke-linecap:round;stroke-linejoin:round;stroke:rgb(20%,20%,90.196078%);stroke-opacity:0.701961;stroke-miterlimit:10;" d="M 420.570312 384.253906 C 420.570312 391.453125 409.769531 391.453125 409.769531 384.253906 C 409.769531 377.054688 420.570312 377.054688 420.570312 384.253906 "/>
<path style="fill-rule:nonzero;fill:rgb(20%,20%,90.196078%);fill-opacity:0.701961;stroke-width:0.75;stroke-linecap:round;stroke-linejoin:round;stroke:rgb(20%,20%,90.196078%);stroke-opacity:0.701961;stroke-miterlimit:10;" d="M 425.519531 326.808594 C 425.519531 334.007812 414.71875 334.007812 414.71875 326.808594 C 414.71875 319.605469 425.519531 319.605469 425.519531 326.808594 "/>
<path style="fill-rule:nonzero;fill:rgb(20%,20%,90.196078%);fill-opacity:0.701961;stroke-width:0.75;stroke-linecap:round;stroke-linejoin:round;stroke:rgb(20%,20%,90.196078%);stroke-opacity:0.701961;stroke-miterlimit:10;" d="M 430.46875 339.347656 C 430.46875 346.546875 419.671875 346.546875 419.671875 339.347656 C 419.671875 332.148438 430.46875 332.148438 430.46875 339.347656 "/>
<path style="fill-rule:nonzero;fill:rgb(20%,20%,90.196078%);fill-opacity:0.701961;stroke-width:0.75;stroke-linecap:round;stroke-linejoin:round;stroke:rgb(20%,20%,90.196078%);stroke-opacity:0.701961;stroke-miterlimit:10;" d="M 435.421875 372.148438 C 435.421875 379.347656 424.621094 379.347656 424.621094 372.148438 C 424.621094 364.945312 435.421875 364.945312 435.421875 372.148438 "/>
<path style="fill-rule:nonzero;fill:rgb(20%,20%,90.196078%);fill-opacity:0.701961;stroke-width:0.75;stroke-linecap:round;stroke-linejoin:round;stroke:rgb(20%,20%,90.196078%);stroke-opacity:0.701961;stroke-miterlimit:10;" d="M 440.371094 350.96875 C 440.371094 358.167969 429.570312 358.167969 429.570312 350.96875 C 429.570312 343.769531 440.371094 343.769531 440.371094 350.96875 "/>
<path style="fill-rule:nonzero;fill:rgb(20%,20%,90.196078%);fill-opacity:0.701961;stroke-width:0.75;stroke-linecap:round;stroke-linejoin:round;stroke:rgb(20%,20%,90.196078%);stroke-opacity:0.701961;stroke-miterlimit:10;" d="M 445.320312 295.359375 C 445.320312 302.5625 434.519531 302.5625 434.519531 295.359375 C 434.519531 288.160156 445.320312 288.160156 445.320312 295.359375 "/>
<path style="fill-rule:nonzero;fill:rgb(20%,20%,90.196078%);fill-opacity:0.701961;stroke-width:0.75;stroke-linecap:round;stroke-linejoin:round;stroke:rgb(20%,20%,90.196078%);stroke-opacity:0.701961;stroke-miterlimit:10;" d="M 450.269531 233.523438 C 450.269531 240.722656 439.46875 240.722656 439.46875 233.523438 C 439.46875 226.324219 450.269531 226.324219 450.269531 233.523438 "/>
<path style="fill-rule:nonzero;fill:rgb(20%,20%,90.196078%);fill-opacity:0.701961;stroke-width:0.75;stroke-linecap:round;stroke-linejoin:round;stroke:rgb(20%,20%,90.196078%);stroke-opacity:0.701961;stroke-miterlimit:10;" d="M 455.21875 251.839844 C 455.21875 259.039062 444.421875 259.039062 444.421875 251.839844 C 444.421875 244.640625 455.21875 244.640625 455.21875 251.839844 "/>
<path style="fill-rule:nonzero;fill:rgb(20%,20%,90.196078%);fill-opacity:0.701961;stroke-width:0.75;stroke-linecap:round;stroke-linejoin:round;stroke:rgb(20%,20%,90.196078%);stroke-opacity:0.701961;stroke-miterlimit:10;" d="M 460.171875 204.53125 C 460.171875 211.730469 449.371094 211.730469 449.371094 204.53125 C 449.371094 197.332031 460.171875 197.332031 460.171875 204.53125 "/>
<path style="fill-rule:nonzero;fill:rgb(20%,20%,90.196078%);fill-opacity:0.701961;stroke-width:0.75;stroke-linecap:round;stroke-linejoin:round;stroke:rgb(20%,20%,90.196078%);stroke-opacity:0.701961;stroke-miterlimit:10;" d="M 465.121094 249.238281 C 465.121094 256.441406 454.320312 256.441406 454.320312 249.238281 C 454.320312 242.039062 465.121094 242.039062 465.121094 249.238281 "/>
<path style="fill-rule:nonzero;fill:rgb(20%,20%,90.196078%);fill-opacity:0.701961;stroke-width:0.75;stroke-linecap:round;stroke-linejoin:round;stroke:rgb(20%,20%,90.196078%);stroke-opacity:0.701961;stroke-miterlimit:10;" d="M 470.070312 222.316406 C 470.070312 229.515625 459.269531 229.515625 459.269531 222.316406 C 459.269531 215.117188 470.070312 215.117188 470.070312 222.316406 "/>
<path style="fill-rule:nonzero;fill:rgb(20%,20%,90.196078%);fill-opacity:0.701961;stroke-width:0.75;stroke-linecap:round;stroke-linejoin:round;stroke:rgb(20%,20%,90.196078%);stroke-opacity:0.701961;stroke-miterlimit:10;" d="M 475.019531 191.558594 C 475.019531 198.757812 464.21875 198.757812 464.21875 191.558594 C 464.21875 184.359375 475.019531 184.359375 475.019531 191.558594 "/>
<path style="fill-rule:nonzero;fill:rgb(20%,20%,90.196078%);fill-opacity:0.701961;stroke-width:0.75;stroke-linecap:round;stroke-linejoin:round;stroke:rgb(20%,20%,90.196078%);stroke-opacity:0.701961;stroke-miterlimit:10;" d="M 479.96875 276.921875 C 479.96875 284.121094 469.171875 284.121094 469.171875 276.921875 C 469.171875 269.71875 479.96875 269.71875 479.96875 276.921875 "/>
<path style="fill-rule:nonzero;fill:rgb(20%,20%,90.196078%);fill-opacity:0.701961;stroke-width:0.75;stroke-linecap:round;stroke-linejoin:round;stroke:rgb(20%,20%,90.196078%);stroke-opacity:0.701961;stroke-miterlimit:10;" d="M 484.921875 223.128906 C 484.921875 230.328125 474.121094 230.328125 474.121094 223.128906 C 474.121094 215.925781 484.921875 215.925781 484.921875 223.128906 "/>
<path style="fill:none;stroke-width:5.25;stroke-linecap:round;stroke-linejoin:round;stroke:rgb(0%,0%,0%);stroke-opacity:1;stroke-miterlimit:10;" d="M 83.519531 36.261719 L 88.46875 67.8125 L 93.421875 98.285156 L 98.371094 124.746094 L 103.320312 144.855469 L 108.269531 157.242188 L 113.21875 161.707031 L 118.171875 159.277344 L 123.121094 152.011719 L 128.070312 142.710938 L 133.019531 134.445312 L 137.96875 130.089844 L 142.921875 131.863281 L 147.871094 140.976562 L 152.820312 157.441406 L 157.769531 180.070312 L 162.71875 206.671875 L 167.671875 234.375 L 172.621094 260.109375 L 177.570312 281.066406 L 182.519531 295.160156 L 187.46875 301.34375 L 192.421875 299.785156 L 197.371094 291.835938 L 202.320312 279.8125 L 207.269531 266.640625 L 212.21875 255.390625 L 217.171875 248.78125 L 222.121094 248.773438 L 227.070312 256.234375 L 232.019531 270.816406 L 236.96875 291.019531 L 241.921875 314.402344 L 246.871094 337.996094 L 251.820312 358.746094 L 256.769531 374.019531 L 261.71875 382.003906 L 266.671875 382.003906 L 271.621094 374.539062 L 276.570312 361.269531 L 281.519531 344.742188 L 286.46875 327.964844 L 291.421875 313.964844 L 296.371094 305.269531 L 301.320312 303.550781 L 306.269531 309.328125 L 311.21875 321.90625 L 316.171875 339.46875 L 321.121094 359.378906 L 326.070312 378.59375 L 331.019531 394.132812 L 335.96875 403.566406 L 340.921875 405.386719 L 345.871094 399.242188 L 350.820312 386.011719 L 355.769531 367.648438 L 360.71875 346.871094 L 365.671875 326.753906 L 370.621094 310.21875 L 375.570312 299.585938 L 380.519531 296.203125 L 385.46875 300.238281 L 390.421875 310.648438 L 395.371094 325.34375 L 400.320312 341.519531 L 405.269531 356.097656 L 410.21875 366.21875 L 415.171875 369.683594 L 420.121094 365.304688 L 425.070312 353.097656 L 430.019531 334.269531 L 434.96875 311.042969 L 439.921875 286.285156 L 444.871094 263.078125 L 449.820312 244.210938 L 454.769531 231.75 L 459.71875 226.722656 L 464.671875 228.925781 L 469.621094 236.988281 L 474.570312 248.570312 L 479.519531 260.746094 "/>
</g>
</g>
</svg>
